<?xml version="1.0" standalone="no"?>
<!DOCTYPE svg PUBLIC "-//W3C//DTD SVG 1.1//EN" "http://www.w3.org/Graphics/SVG/1.1/DTD/svg11.dtd" >
<svg xmlns="http://www.w3.org/2000/svg">
<metadata></metadata>
<defs>
<font id="HPSimplifiedBold" horiz-adv-x="1097" >
<font-face units-per-em="2048" ascent="1665" descent="-383" />
<missing-glyph horiz-adv-x="389" />
<glyph unicode="&#xfb01;" horiz-adv-x="1212" d="M41 870v193h117v55q0 302 179 358q56 17 111 17q106 0 161.5 -28t56.5 -97v-141q-23 2 -40 2h-34q-68 0 -80 -32t-12 -91v-43h530q76 0 76 -72v-991h-266q-76 0 -76 72v727h-264v-799h-267q-76 0 -75 72v727h-41q-76 0 -76 71zM745 1323q0 84 43 120t148 36 q104 0 147 -36t43 -120t-43 -120t-147 -36t-147.5 36t-43.5 120z" />
<glyph unicode="&#xfb02;" horiz-adv-x="1273" d="M41 870v193h117v55q0 302 179 358q56 17 111 17q106 0 161.5 -28t56.5 -97v-141q-23 2 -40 2h-34q-68 0 -80 -32t-12 -91v-43h264v407h266q76 0 76 -71v-1075q0 -41 12 -58.5t53 -21.5t49.5 -22.5t8.5 -57.5v-152q-106 -32 -193 -32q-134 0 -198 68q-74 80 -74 267v484 h-264v-799h-267q-76 0 -75 72v727h-41q-76 0 -76 71z" />
<glyph unicode="&#xfb03;" horiz-adv-x="1818" d="M41 870v193h117v55q0 302 177 358q56 17 126 17q219 0 219 -125v-141l-41 2h-49.5t-48 -8.5t-28.5 -23.5q-13 -22 -13 -91v-43h264v55q0 302 179 358q56 17 111 17q105 0 161.5 -28t56.5 -97v-141q-23 2 -40 2h-34q-68 0 -80 -32t-12 -91v-43h530q76 0 76 -72v-991h-266 q-76 0 -76 72v727h-264v-799h-266q-76 0 -76 72v727h-264v-799h-267q-76 0 -75 72v727h-41q-76 0 -76 71zM1352 1323q0 84 43 120t147 36t147.5 -36t43.5 -120t-43.5 -120t-147.5 -36t-147 36t-43 120z" />
<glyph unicode="&#xfb04;" horiz-adv-x="1880" d="M41 870v193h117v55q0 302 177 358q56 17 126 17q219 0 219 -125v-141l-41 2h-49.5t-48 -8.5t-28.5 -23.5q-13 -22 -13 -91v-43h264v55q0 302 179 358q56 17 111 17q105 0 161.5 -28t56.5 -97v-141q-23 2 -40 2h-34q-68 0 -80 -32t-12 -91v-43h264v407h266q76 0 76 -71 v-1075q0 -41 12.5 -58.5t53.5 -21.5t49 -22.5t8 -57.5v-152q-106 -32 -193 -32q-133 0 -197 68q-75 79 -75 267v484h-264v-799h-266q-76 0 -76 72v727h-264v-799h-267q-76 0 -75 72v727h-41q-76 0 -76 71z" />
<glyph unicode="&#xd;" horiz-adv-x="389" />
<glyph horiz-adv-x="0" />
<glyph horiz-adv-x="0" />
<glyph unicode=" "  horiz-adv-x="389" />
<glyph unicode="&#x09;" horiz-adv-x="389" />
<glyph unicode="&#xa0;" horiz-adv-x="389" />
<glyph unicode="!" horiz-adv-x="638" d="M123 166q0 96 45 139t151 43t151.5 -43t45.5 -139t-45 -139t-152 -43q-106 0 -151 43t-45 139zM143 1118v301h277q76 0 76 -71v-220q0 -238 -56 -661h-180q-31 0 -47.5 17.5t-24.5 73t-16 135t-14 157.5q-15 195 -15 268z" />
<glyph unicode="&#x22;" horiz-adv-x="868" d="M66 1419h241q64 0 64 -61q0 -126 -12.5 -271t-20.5 -194h-182q-53 0 -60 43q-14 122 -30 483zM494 1419h241q64 0 64 -61q0 -126 -12.5 -271t-20.5 -194h-182q-53 0 -60 43q-14 122 -30 483z" />
<glyph unicode="#" horiz-adv-x="1210" d="M84 365v170h145l33 323h-102q-76 0 -76 72v170h203l28 286h199q70 0 59 -71l-22 -215h190l29 286h199q68 0 59 -71l-22 -215h45q76 0 75 -72v-170h-145l-33 -323h103q76 0 75 -72v-170h-202l-29 -293h-199q-68 0 -59 72l22 221h-190l-29 -293h-198q-69 0 -60 72l23 221 h-45q-76 0 -76 72zM494 535h190l33 323h-191z" />
<glyph unicode="$" d="M94 953q0 131 31 206.5t87 122.5q99 83 306 96l17 195h102q35 0 45 -18.5t8 -45.5l-10 -129q126 -7 193 -33t76 -54.5t9 -55.5v-127q-168 14 -299 14l-22 -303q100 -35 171 -67.5t116 -76.5q84 -82 84 -255q0 -319 -244 -388q-82 -24 -191 -28l-16 -207h-102 q-59 0 -54 64l11 143q-139 8 -204 30.5t-81 46t-16 54.5v144q228 -13 321 -13l25 307q-204 69 -281 155q-82 92 -82 223zM369 988q0 -58 24.5 -86t83.5 -46l21 266q-78 -6 -103.5 -41t-25.5 -93zM594 270q76 4 104.5 39t28.5 101t-27.5 91t-85.5 44z" />
<glyph unicode="%" horiz-adv-x="1703" d="M66 1032q0 308 196 366q60 17 129 17q153 0 233 -78q93 -91 93 -306q0 -114 -24.5 -187.5t-68.5 -116.5q-80 -78 -233 -78q-152 0 -232 78q-93 91 -93 305zM313 1003q0 -86 15.5 -125.5t61.5 -39.5t62.5 40t16.5 154q0 115 -16.5 154t-50.5 39t-49 -8.5t-24.5 -30 t-12.5 -59.5t-3 -124zM330 45q0 18 10 35l792 1306h189q53 0 53 -45q0 -18 -10 -34l-793 -1307h-188q-53 0 -53 45zM988 356q0 308 196 366q60 17 129 17q153 0 233 -78q93 -91 93 -306q0 -114 -24.5 -187.5t-68.5 -116.5q-80 -78 -233 -78q-152 0 -232 78q-93 91 -93 305z M1235 327q0 -86 15.5 -125.5t61.5 -39.5t62.5 40t16.5 154q0 115 -16.5 154t-50.5 39t-49 -8.5t-24.5 -30t-12.5 -59.5t-3 -124z" />
<glyph unicode="&#x26;" horiz-adv-x="1368" d="M74 375q0 158 63 247q59 83 193 154q-133 153 -133 314q0 356 411 356q214 0 316 -106q88 -90 88 -228.5t-62.5 -222.5t-173.5 -150q94 -94 191 -209q35 80 45 195h188q76 0 76 -66q0 -116 -59 -226q-29 -54 -62 -105q119 -158 182 -328h-256q-31 0 -49 10t-37 39l-51 82 q-96 -92 -195.5 -125t-226 -33t-218 37t-142.5 96q-88 100 -88 269zM401 401q0 -163 170 -163q132 0 211 71q-103 128 -171 196l-91 91q-119 -58 -119 -195zM500 1096.5q0 -66.5 21.5 -106.5t68.5 -87q63 37 94 76t31 110.5t-26.5 96t-78.5 24.5q-51 0 -80.5 -23.5 t-29.5 -90z" />
<glyph unicode="'" horiz-adv-x="440" d="M66 1419h241q64 0 64 -61q0 -126 -12.5 -271t-20.5 -194h-182q-53 0 -60 43q-14 122 -30 483z" />
<glyph unicode="(" horiz-adv-x="677" d="M100 653q0 170 14.5 280.5t47.5 216.5q65 208 211 423h184q61 0 61 -60q0 -20 -24.5 -78.5t-56 -143.5t-53.5 -175q-48 -190 -48 -397q0 -460 226 -887h-228q-45 0 -65 20.5t-43 61.5q-123 193 -174.5 381t-51.5 358z" />
<glyph unicode=")" horiz-adv-x="677" d="M16 1573h228q45 0 65 -20.5t62 -89t85.5 -163t69.5 -190.5q52 -187 52 -358t-14.5 -281.5t-47.5 -215.5q-66 -209 -211 -423h-184q-25 0 -43.5 14.5t-18.5 39.5t25 84t56.5 144t53.5 175q48 190 48 397q0 460 -226 887z" />
<glyph unicode="*" horiz-adv-x="866" d="M53 1051l62 190q9 35 30 35q19 0 48 -16l163 -97l-37 256h197q25 0 35 -10t10 -29q0 -33 -4 -53l-35 -164l230 117l59 -188q2 -6 2 -24q0 -28 -65 -40l-175 -20l183 -183l-162 -110q-10 -8 -26 -8q-24 0 -52 47l-76 155l-125 -225l-157 117q-18 12 -18.5 36t32.5 52 l133 119z" />
<glyph unicode="+" d="M117 625v209h280v311h230q72 0 71 -76v-235h205q76 0 76 -72v-209h-281v-311h-229q-72 0 -72 75v236h-204q-76 0 -76 72z" />
<glyph unicode="," horiz-adv-x="593" d="M102 166q0 96 45.5 139t150.5 43t149.5 -44t44.5 -127t-32 -153.5t-65 -132.5l-84 -153h-145q-51 0 -51 39q0 20 8 37l100 202q-74 25 -97.5 64t-23.5 86z" />
<glyph unicode="-" horiz-adv-x="794" d="M78 479v234h563q76 0 76 -72v-233h-563q-76 0 -76 71z" />
<glyph unicode="." horiz-adv-x="593" d="M100 166q0 96 45 139t152 43q106 0 151.5 -43t45.5 -139t-45.5 -139t-151.5 -43t-151.5 43t-45.5 139z" />
<glyph unicode="/" horiz-adv-x="817" d="M23 -119q0 11 6 35l454 1657h256q55 0 56 -51q0 -13 -7 -35l-454 -1657h-256q-55 0 -55 51z" />
<glyph unicode="0" d="M61 696q0 426 133 590q64 78 154 105.5t201 27.5t201 -27.5t154 -105.5q132 -163 132 -590t-132 -590q-64 -79 -154.5 -106t-200.5 -27q-111 0 -201 27t-154 106q-133 165 -133 590zM406 696q0 -288 21.5 -354t50 -81t75.5 -15t74.5 15t42.5 63q22 73 22 374 q0 288 -21.5 353t-50 80.5t-72.5 15.5t-71.5 -15.5t-42.5 -62.5q-28 -83 -28 -373z" />
<glyph unicode="1" d="M154 1040v213l84 35q203 87 378 121q52 10 82 10q31 0 51.5 -20.5t20.5 -50.5v-1348h-270q-76 0 -76 72v983l-150 -43q-60 -17 -71 -17q-49 0 -49 45z" />
<glyph unicode="2" d="M102 72v96q0 267 210 454q57 52 116 100t100 84t64 66q43 53 43 129t-54.5 97.5t-158.5 21.5l-221 -8q-78 0 -78 74v162q53 25 155.5 48t227.5 23q248 0 362.5 -105.5t114.5 -291.5q0 -215 -158 -364q-53 -51 -134 -114t-115 -98q-75 -74 -95 -159h420q76 0 76 -72v-215 h-799q-76 0 -76 72z" />
<glyph unicode="3" d="M102 106v179q124 -15 276 -15t201.5 32t49.5 116q0 69 -27 99q-49 54 -158 54h-55q-76 0 -76 72v205h144q145 0 161 86q5 24 5 59t-11.5 62.5t-37.5 42.5q-38 24 -166 24l-218 -8q-75 0 -75 74v160q151 71 387 71q454 0 454 -383q0 -221 -202 -311q223 -82 223 -330 q0 -195 -118 -308.5t-374 -113.5q-189 0 -307 43q-49 18 -62.5 40t-13.5 50z" />
<glyph unicode="4" d="M57 391v205q59 189 183 404q134 236 288 386h320q76 0 76 -71v-735h32q76 0 76 -72v-189h-108v-319h-240q-76 0 -76 72v247h-475q-76 0 -76 72zM330 580h278v532q-119 -154 -217 -372q-35 -78 -61 -160z" />
<glyph unicode="5" d="M129 106v168q168 -14 258 -14t137 7t74 25q47 33 47 132.5t-41 139.5t-147 40h-230q-37 0 -60.5 14.5t-23.5 73.5q0 42 4 82l31 612h707q76 0 76 -71v-211h-490l-14 -236h94q223 0 332.5 -108.5t109.5 -333.5q0 -213 -103 -324q-119 -129 -390 -129q-188 0 -295 43 q-47 18 -61.5 39t-14.5 51z" />
<glyph unicode="6" d="M90 641q0 656 318 749q96 29 201 29q196 0 278 -49q39 -23 45 -51.5t6 -54.5v-131q-110 10 -212.5 10t-160 -14.5t-90.5 -50.5t-45 -96t-16 -153q101 72 259 72t253.5 -114.5t95.5 -340.5q0 -343 -248 -439q-88 -34 -218 -34t-219 37t-145 117q-102 148 -102 514z M412 594q0 -305 84 -342q28 -12 65 -12q80 0 108.5 47t28.5 151t-28.5 149.5t-116.5 45.5t-141 -39z" />
<glyph unicode="7" d="M104 1171v215h789q76 0 76 -71v-187q-195 -438 -293 -808q-39 -148 -74 -320h-258q-43 0 -60.5 23.5t-17.5 72t33 159.5t73 224t84 223q91 226 185 398h-461q-76 0 -76 71z" />
<glyph unicode="8" d="M63 383q0 112 29 172.5t67 99.5t97 70q-166 100 -166 317q0 178 116 277.5t344 99.5t343 -98t115 -279q0 -217 -166 -317q157 -82 184 -245q8 -48 8 -97q0 -211 -119.5 -310.5t-361.5 -99.5t-366 99.5t-124 310.5zM391 412q0 -94 36 -137.5t122 -43.5t122 43t36 138 q0 94 -36 137t-122 43t-122 -43t-36 -137zM399 1008q0 -84 34 -123t116 -39t115.5 39t33.5 123t-33.5 122.5t-115.5 38.5t-116 -38.5t-34 -122.5z" />
<glyph unicode="9" d="M76 952q0 343 248 434q88 33 218 33t219 -38t145 -119q102 -151 102 -517q0 -466 -152 -639q-72 -81 -170 -107t-208 -26q-204 0 -285 50q-39 23 -45.5 51t-6.5 55v131q110 -10 219 -10t169.5 15.5t93 52t45 100t16.5 160.5q-109 -72 -244 -72q-174 0 -269 111.5 t-95 334.5zM399 964q0 -97 29 -143.5t112.5 -46.5t145.5 39q-4 209 -40 279q-32 61 -110.5 61t-107.5 -46t-29 -143z" />
<glyph unicode=":" horiz-adv-x="593" d="M100 166q0 96 45 139t152 43q106 0 151.5 -43t45.5 -139t-45.5 -139t-151.5 -43t-151.5 43t-45.5 139zM100 881q0 96 45 139t152 43q106 0 151.5 -43t45.5 -139t-45.5 -139t-151.5 -43t-151.5 43t-45.5 139z" />
<glyph unicode=";" horiz-adv-x="593" d="M100 881q0 96 45 139t152 43q106 0 151.5 -43t45.5 -139t-45.5 -139t-151.5 -43t-151.5 43t-45.5 139zM102 166q0 96 45.5 139t150.5 43t149.5 -44t44.5 -127t-32 -153.5t-65 -132.5l-84 -153h-145q-51 0 -51 39q0 20 8 37l100 202q-74 25 -97.5 64t-23.5 86z" />
<glyph unicode="&#x3c;" d="M152 643v166l661 311q58 28 87 2q15 -12 15 -41v-225l-432 -164l369 -127q41 -14 52 -35.5t11 -56.5v-244l-698 312q-43 20 -54 38.5t-11 63.5z" />
<glyph unicode="=" d="M137 424v199h748q76 0 76 -72v-199h-748q-76 0 -76 72zM137 836v198h748q76 0 76 -71v-199h-748q-76 0 -76 72z" />
<glyph unicode="&#x3e;" d="M182 299v225l432 164l-368 127q-41 14 -52.5 35.5t-11.5 56.5v244l699 -311q43 -20 54 -39t11 -64v-166l-661 -311q-29 -14 -54 -14q-49 0 -49 53z" />
<glyph unicode="?" horiz-adv-x="901" d="M61 1210v168q157 68 315.5 68t240 -26.5t131.5 -75.5q88 -89 88 -273q0 -181 -100 -285q-34 -36 -75 -71t-68.5 -58.5t-46.5 -44.5q-41 -45 -48 -102l-6 -43h-183q-49 0 -67 49t-18.5 114.5t40.5 115t87 91.5t69.5 65.5t37.5 43.5q25 36 25 77.5t-13 66t-36 36.5 q-39 21 -127 21l-180 -6q-37 0 -51.5 17.5t-14.5 51.5zM186 166q0 96 45 139t152 43q106 0 151.5 -43t45.5 -139t-45.5 -139t-151.5 -43t-151.5 43t-45.5 139z" />
<glyph unicode="@" horiz-adv-x="1751" d="M84 551q0 464 258 683q218 185 598 185q317 0 500 -138q233 -177 233 -576q0 -292 -103 -444q-120 -175 -388 -175h-97q-37 0 -53 16.5t-31 57.5l-14 39q-39 -45 -90 -79t-117.5 -34t-112.5 19.5t-80 65.5q-75 101 -75 300q0 258 85 391q109 170 370 170q189 0 253 -42 q31 -19 27 -75l-37 -610q119 0 166 94.5t47 328t-112.5 352t-368.5 118.5q-275 0 -421 -128q-183 -161 -183 -519q0 -378 152 -519q77 -73 199 -101.5t267.5 -28.5t220 8t109.5 8t42 -19.5t7 -56.5v-116q-141 -45 -357 -45t-380 37.5t-278 135.5q-236 206 -236 697z M788 450.5q0 -75.5 18.5 -107.5t61.5 -32t72 13l27 479q-12 2 -25 2h-24q-114 0 -126 -219q-4 -60 -4 -135.5z" />
<glyph unicode="A" horiz-adv-x="1181" d="M66 80q0 40 8 78q123 749 301 1261h370q41 0 57.5 -20.5t24.5 -42.5q176 -525 303 -1356h-294q-66 0 -76 74l-33 274h-287q-28 -216 -37 -348h-274q-63 0 -63 80zM467 602h233q-23 119 -48 251t-68 304q-55 -221 -117 -555z" />
<glyph unicode="B" horiz-adv-x="1155" d="M121 72v1323q225 45 386 45t253 -19.5t156 -65.5q135 -96 135 -304q0 -115 -44 -191t-149 -129q187 -78 218 -245q9 -50 9 -132t-36.5 -155.5t-100.5 -118.5q-112 -80 -334 -80h-417q-76 0 -76 72zM465 252h119q88 0 126 42t38 138t-42 136t-143 40h-98v-356zM465 850 h106q78 0 112 34t34 131t-33 131t-110 34t-109 -4v-326z" />
<glyph unicode="C" horiz-adv-x="1030" d="M98 709q0 411 124 577q120 160 413 160q156 0 248 -45q37 -18 49 -43t12 -66v-151q-152 10 -238 10t-130 -19.5t-70 -67.5q-43 -82 -43 -345t45 -357q44 -92 162 -92l215 9q74 0 73 -74v-168q-154 -64 -360 -64q-246 0 -364 152q-136 174 -136 584z" />
<glyph unicode="D" horiz-adv-x="1249" d="M121 72v1323q233 45 410 45t287 -28t184 -108q149 -161 149 -589q0 -425 -147 -582q-74 -78 -182.5 -105.5t-250.5 -27.5h-374q-76 0 -76 72zM475 272h82q68 0 112 13.5t71 60.5q48 86 48 381q0 284 -44 368q-25 46 -66.5 60t-105 14t-97.5 -4v-893z" />
<glyph unicode="E" horiz-adv-x="1062" d="M121 72v1347h768q76 0 76 -71v-211h-496v-271h360q76 0 76 -71v-211h-436v-301h440q76 0 76 -72v-211h-788q-76 0 -76 72z" />
<glyph unicode="F" horiz-adv-x="1019" d="M121 72v1347h758q76 0 75 -71v-211h-475v-281h340q76 0 76 -72v-211h-416v-573h-282q-76 0 -76 72z" />
<glyph unicode="G" horiz-adv-x="1179" d="M98 709q0 423 140 588q71 83 177.5 116t246.5 33q194 0 303 -57q37 -20 45 -41t8 -64v-145q-198 12 -279.5 12t-135.5 -11.5t-87 -54.5q-59 -77 -59 -366q0 -291 49 -381q26 -49 69 -65.5t83 -16.5h60q21 0 42 2v274h-70q-27 0 -45 17.5t-18 50.5v199h374q76 0 76 -72 v-684q-170 -70 -405 -70q-150 0 -257.5 35t-178.5 120q-138 167 -138 581z" />
<glyph unicode="H" horiz-adv-x="1261" d="M121 72v1347h282q76 0 76 -71v-476h303v547h283q76 0 76 -71v-1348h-283q-76 0 -76 72v510h-303v-582h-282q-76 0 -76 72z" />
<glyph unicode="I" horiz-adv-x="604" d="M123 72v1347h283q76 0 75 -71v-1348h-282q-76 0 -76 72z" />
<glyph unicode="J" horiz-adv-x="835" d="M51 102v166q51 -4 80 -4h62q95 0 131 40q41 45 41 177v938h282q76 0 76 -71v-830q0 -326 -111 -446q-55 -58 -134 -78.5t-153.5 -20.5t-107.5 2t-55 5q-24 5 -62 22q-35 20 -42 46t-7 54z" />
<glyph unicode="K" horiz-adv-x="1185" d="M121 72v1347h278q76 0 76 -71v-480q168 207 316 551h284q29 0 45.5 -16.5t16.5 -37.5q0 -48 -71 -172t-118 -193q-102 -151 -200 -255q225 -231 415 -745h-336q-39 0 -58 27.5t-34.5 64.5t-40 96.5t-57.5 125.5q-76 151 -162 264v-578h-278q-76 0 -76 72z" />
<glyph unicode="L" horiz-adv-x="987" d="M121 72v1347h282q76 0 76 -71v-1055h381q76 0 76 -72v-221h-739q-76 0 -76 72z" />
<glyph unicode="M" horiz-adv-x="1513" d="M106 72q0 449 58 1347h364q29 0 51.5 -14t32.5 -59l150 -631l170 704h346q41 0 55.5 -20.5t18.5 -52.5q55 -701 55 -1346h-260q-76 0 -76 72v222q0 341 -8 761l-176 -705h-205q-45 0 -59.5 22.5t-22.5 51.5l-154 631q-8 -222 -8 -587v-468h-256q-76 0 -76 72z" />
<glyph unicode="N" horiz-adv-x="1265" d="M121 72v1347h268q53 0 89 -72.5t80 -162.5t89 -188q118 -259 172 -396v819h250q76 0 76 -71v-1348h-281q-52 0 -80 74q-226 574 -338 786v-860h-249q-76 0 -76 72z" />
<glyph unicode="O" horiz-adv-x="1265" d="M98 709q0 439 148 607q69 79 167.5 104.5t218.5 25.5t219 -25.5t169 -104.5q147 -166 147 -607q0 -443 -147 -607q-70 -79 -169 -105t-219 -26t-218.5 26t-167.5 105q-148 166 -148 607zM461 708q0 -144 7 -233.5t25.5 -138.5t52.5 -65.5t87 -16.5t87 16.5t52 65.5 q33 86 33 301t-7 304t-25.5 138t-52.5 66.5t-87 17.5t-87 -17.5t-52.5 -66.5t-25.5 -138t-7 -233z" />
<glyph unicode="P" horiz-adv-x="1142" d="M121 72v1323q225 45 398 45t268.5 -24.5t158.5 -79.5q121 -108 121 -364.5t-107.5 -370.5t-318.5 -114q-90 0 -172 17v-504h-272q-76 0 -76 72zM469 756q50 -8 89.5 -8t71.5 9t52 35q41 52 41 179q0 176 -85 201q-30 8 -83.5 8t-85.5 -4v-420z" />
<glyph unicode="Q" horiz-adv-x="1265" d="M98 709q0 439 148 607q69 79 167.5 104.5t218.5 25.5t219 -25.5t169 -104.5q147 -166 147 -607q0 -521 -204 -658q116 -133 217 -315h-312q-37 0 -53 16.5t-43 57.5q-70 106 -115 161h-24q-121 0 -219.5 26t-167.5 105q-148 166 -148 607zM461 708q0 -144 7 -233.5 t25.5 -138.5t52.5 -65.5t87 -16.5t87 16.5t52 65.5q33 86 33 301t-7 304t-25.5 138t-52.5 66.5t-87 17.5t-87 -17.5t-52.5 -66.5t-25.5 -138t-7 -233z" />
<glyph unicode="R" horiz-adv-x="1181" d="M121 72v1323q225 45 465 45t362.5 -108.5t122.5 -367t-194 -364.5q124 -159 221 -439q28 -83 47 -161h-295q-37 0 -59.5 14.5t-34.5 53.5q-69 231 -191 448h-96v-516h-272q-76 0 -76 72zM469 776h109q153 0 153 203q0 122 -41 165q-34 36 -121 36h-21q-13 0 -27.5 -1 l-29 -2t-22.5 -1v-400z" />
<glyph unicode="S" horiz-adv-x="1071" d="M96 991q0 142 34 224.5t98 134.5q118 96 356 96q178 0 288 -43q53 -23 62.5 -53.5t9.5 -59.5v-147q-47 2 -84 5t-72 4q-103 3 -155.5 3t-92.5 -8t-62 -23q-40 -25 -40 -71t7.5 -67t28.5 -40q32 -27 151.5 -79t184 -91t104.5 -88q75 -92 75 -272q0 -234 -111 -337 q-115 -106 -376 -106q-211 0 -318 41q-75 28 -75 103v166q173 -13 277 -13t148 8.5t68 23.5q39 25 39 76.5t-10 75t-36 42.5q-29 22 -153 74.5t-185.5 93.5t-96.5 92q-64 93 -64 235z" />
<glyph unicode="T" horiz-adv-x="1126" d="M51 1198v221h948q76 0 76 -71v-222h-332v-1126h-282q-76 0 -76 72v1054h-258q-76 0 -76 72z" />
<glyph unicode="U" horiz-adv-x="1222" d="M113 530v889h282q76 0 76 -71v-875q0 -112 21.5 -149t49 -50.5t73.5 -13.5t74 12.5t41 39.5q22 44 22 167v940h282q76 0 76 -71v-818q0 -129 -18.5 -232t-72.5 -176q-110 -149 -398 -149q-270 0 -385 115q-123 123 -123 442z" />
<glyph unicode="V" horiz-adv-x="1181" d="M51 1419h314q70 0 77.5 -83.5t23 -204.5t34.5 -255q40 -274 100 -536q130 569 162 1079h280q74 0 74 -80q0 -41 -28 -201q-112 -659 -285 -1138h-359q-67 0 -90 63q-198 585 -303 1356z" />
<glyph unicode="W" horiz-adv-x="1644" d="M66 1419h286q69 0 74 -80q6 -115 11 -222t15 -224q20 -222 68 -547l160 957h240q37 0 51 -20.5t20 -59.5l142 -877q75 474 102 1073h272q64 0 64 -84q0 -136 -57.5 -488.5t-94.5 -526t-82 -320.5h-307q-69 0 -82 78l-125 756l-143 -834h-301q-39 0 -57.5 16.5t-40 83 t-55 227t-64.5 347.5q-69 412 -96 745z" />
<glyph unicode="X" horiz-adv-x="1181" d="M57 1419h324q35 0 52.5 -17.5t27.5 -51.5q59 -238 133 -426q102 243 151 495h287q27 0 45.5 -17.5t18.5 -42.5q0 -31 -26 -109.5t-93.5 -224.5t-159.5 -300q216 -335 322 -725h-326q-39 0 -56.5 22.5t-36.5 93.5q-54 208 -136 410q-121 -296 -168 -526h-289q-66 0 -66 70 q0 16 9 45q92 301 288 618q-196 328 -301 686z" />
<glyph unicode="Y" horiz-adv-x="1124" d="M23 1419h319q47 0 61.5 -23.5t29.5 -95.5q54 -256 138 -483q112 313 160 602h277q69 0 69 -71q0 -16 -10 -64q-86 -327 -326 -762v-522h-282q-76 0 -76 72v452q-257 470 -360 895z" />
<glyph unicode="Z" horiz-adv-x="1071" d="M68 72v198q225 434 532 858h-446q-76 0 -76 72v219h833q76 0 76 -71v-209q-147 -211 -289.5 -426t-248.5 -422h479q76 0 76 -72v-219h-861q-76 0 -75 72z" />
<glyph unicode="[" horiz-adv-x="681" d="M119 -100v1673h442q76 0 76 -70v-184h-205v-1235h129q76 0 76 -70v-184h-442q-76 0 -76 70z" />
<glyph unicode="\" horiz-adv-x="817" d="M4 1573h262q33 0 54.5 -14.5t31.5 -55.5l461 -1673h-262q-33 0 -54.5 14.5t-31.5 55.5z" />
<glyph unicode="]" horiz-adv-x="681" d="M45 84h205v1235h-129q-76 0 -76 70v184h442q76 0 76 -70v-1673h-442q-76 0 -76 70v184z" />
<glyph unicode="^" d="M82 741q0 18 8 33l332 645h190q45 0 62.5 -11t40.5 -54l323 -664h-258q-35 0 -53 14.5t-35 53.5l-143 321l-184 -389h-228q-55 0 -55 51z" />
<glyph unicode="_" horiz-adv-x="1024" d="M0 -72h1024v-276h-1024v276z" />
<glyph unicode="`" horiz-adv-x="892" d="M113 1516h288q45 0 63.5 -11.5t42.5 -66.5q58 -134 99 -269h-176q-61 0 -92 45z" />
<glyph unicode="a" horiz-adv-x="1060" d="M76 326q0 286 266 321q76 10 158 10h125v62q0 66 -45 81t-140 15l-235 -8q-39 0 -55.5 20.5t-16.5 46.5v144q157 69 386 69q437 0 437 -387v-700h-196q-46 0 -60 12q-22 20 -38 70l-13 33q-116 -127 -265.5 -127t-228.5 88t-79 250zM369 346q0 -63 30.5 -86.5t100 -23.5 t123.5 40v183h-131q-123 0 -123 -113z" />
<glyph unicode="b" horiz-adv-x="1099" d="M104 137v1333h267q76 0 75 -71v-383q41 27 91.5 49t125.5 22t138 -27.5t111 -93.5q104 -142 104 -446q0 -295 -108 -420q-110 -127 -369 -127q-135 0 -235.5 23.5t-132.5 39t-49.5 36t-17.5 65.5zM446 233q39 -6 78 -6t66.5 8.5t45.5 38.5q34 61 34 201.5t-7.5 200 t-23.5 94.5q-28 61 -107 61q-47 0 -86 -20v-578z" />
<glyph unicode="c" horiz-adv-x="897" d="M84 528q0 291 102.5 425t331.5 134q158 0 246 -45q37 -18 49 -42.5t12 -65.5v-133q-122 12 -197 12t-110 -13.5t-54 -45.5q-30 -51 -30 -176t6 -181.5t22 -88.5q29 -56 126 -56l145 4q47 0 69.5 -18.5t22.5 -61.5v-135q-53 -27 -119.5 -47.5t-173.5 -20.5 q-240 0 -344 132.5t-104 422.5z" />
<glyph unicode="d" horiz-adv-x="1099" d="M84 527.5q0 289.5 95 419.5t298 130q104 0 176 -30v423h267q76 0 75 -71v-1399h-196q-47 0 -64.5 15.5t-34.5 66.5l-12 35q-118 -133 -272 -133q-160 0 -240 118q-92 136 -92 425.5zM430 591.5q0 -122.5 4 -180t16.5 -91t35 -48t70 -14.5t97.5 35v532q-45 9 -88 9 t-70.5 -16.5t-42.5 -50.5q-22 -53 -22 -175.5z" />
<glyph unicode="e" horiz-adv-x="1032" d="M84 530q0 297 111.5 427t349.5 130q336 0 389 -273q16 -83 16 -141t-2 -89t-7 -62q-12 -75 -23 -100h-517q0 -104 50.5 -145t158.5 -41l244 6q76 0 76 -74v-127q-157 -68 -377 -68q-243 0 -355 129q-114 131 -114 428zM401 621h258q0 127 -25.5 175t-100 48t-102.5 -51.5 t-30 -171.5z" />
<glyph unicode="f" horiz-adv-x="780" d="M45 870v193h117v55q0 211 86 297q78 78 250 78q248 0 250 -125v-145q-75 6 -97 6h-47q-92 0 -98 -71q-2 -23 -2 -52v-43h155q76 0 76 -72v-192h-231v-799h-266q-76 0 -76 72v727h-41q-76 0 -76 71z" />
<glyph unicode="g" horiz-adv-x="1095" d="M84 532q0 295 122 424q116 121 376 121q152 0 257 -15t128.5 -21.5t40.5 -16.5q36 -20 36 -78v-151h-94q23 -179 23 -414v-348q0 -209 -115 -305.5t-334 -96.5q-94 0 -180 13.5t-124 28.5t-50 37t-12 57v137q195 -15 281.5 -15t142 17.5t55.5 89.5v137q-103 -65 -221 -65 q-168 0 -250 109.5t-82 354.5zM424 602.5q0 -111.5 7 -161.5t22.5 -76.5t40 -36t65 -9.5t78.5 19v475q-20 4 -64 4t-75 -14.5t-48 -42.5q-26 -46 -26 -157.5z" />
<glyph unicode="h" horiz-adv-x="1107" d="M104 72v1398h267q76 0 75 -71v-432q110 120 262 120h3q293 0 293 -360v-727h-267q-76 0 -75 72v620q0 53 -20.5 79t-84.5 26t-111 -41v-756h-266q-76 0 -76 72z" />
<glyph unicode="i" horiz-adv-x="555" d="M86 1323q0 84 44 120t148 36t148.5 -36t44.5 -120t-44.5 -120t-148.5 -36t-148 36t-44 120zM106 72v991h267q76 0 76 -72v-991h-267q-76 0 -76 72z" />
<glyph unicode="j" horiz-adv-x="555" d="M-74 -94q33 -2 54 -2h49q47 0 62 26.5t15 81.5v1051h267q76 0 76 -72v-1052q0 -147 -90 -226q-81 -71 -201.5 -71t-162 18t-55.5 36.5t-14 53.5v156zM86 1323q0 84 44 120t148 36t148.5 -36t44.5 -120t-44.5 -120t-148.5 -36t-148 36t-44 120z" />
<glyph unicode="k" horiz-adv-x="1085" d="M104 72v1398h267q76 0 75 -71v-750q92 117 144.5 222.5t89.5 191.5h264q25 0 43.5 -14.5t18.5 -37.5q0 -47 -40 -113q-111 -185 -235 -331q192 -219 324 -567h-303q-47 0 -67.5 23.5t-39.5 68.5t-40 93t-45 95q-43 85 -114 197v-477h-266q-76 0 -76 72z" />
<glyph unicode="l" horiz-adv-x="614" d="M104 315v1155h267q76 0 75 -71v-1075q0 -41 12.5 -58.5t53.5 -21.5t49 -22.5t8 -57.5v-152q-106 -32 -192 -32q-134 0 -198 68q-75 79 -75 267z" />
<glyph unicode="m" horiz-adv-x="1644" d="M104 72v991h197q47 0 64.5 -15.5t33.5 -66.5l13 -37q72 78 139 110.5t158 32.5q181 0 245 -143q121 143 299 143q287 0 287 -360v-727h-266q-76 0 -76 72v620q0 53 -19.5 79t-78 26t-107.5 -39v-758h-266q-76 0 -76 72v620q0 53 -19.5 79t-78 26t-107.5 -39v-758h-266 q-76 0 -76 72z" />
<glyph unicode="n" horiz-adv-x="1107" d="M104 72v991h197q47 0 64.5 -15.5t33.5 -66.5l13 -37q72 78 140.5 110.5t160.5 32.5q291 0 291 -360v-727h-267q-76 0 -75 72v620q0 53 -20.5 79t-84.5 26t-111 -41v-756h-266q-76 0 -76 72z" />
<glyph unicode="o" horiz-adv-x="1101" d="M84 530q0 300 107.5 428.5t359.5 128.5t359.5 -128.5t107.5 -428.5q0 -297 -108 -426q-110 -131 -359 -131t-359 131q-108 129 -108 426zM430 576.5q0 -146.5 5 -206t19.5 -91t37 -42t59.5 -10.5t59.5 10.5t37 42t19.5 91t5 158.5t-5 157.5t-19.5 90.5t-37 42t-59.5 10 t-59.5 -10t-37.5 -42q-24 -54 -24 -200.5z" />
<glyph unicode="p" horiz-adv-x="1110" d="M51 862v166q188 49 455 49q290 0 404 -113q118 -115 118 -415q0 -441 -212 -531q-64 -28 -154.5 -28t-196.5 69v-407h-266q-76 0 -76 72v657q0 243 22 414h-36q-57 0 -58 67zM465 266q39 -20 83 -20t69.5 12t40.5 46q24 57 24 189t-4 182t-20.5 81.5t-48 46t-78 14.5 t-66.5 -4v-547z" />
<glyph unicode="q" horiz-adv-x="1112" d="M84 524q0 311 116 434q114 119 408 119q140 0 246.5 -15t130 -21.5t40.5 -16.5q36 -21 36 -78v-151h-94q22 -171 22 -414v-729h-266q-76 0 -76 72v335q-102 -69 -217 -69q-180 0 -263 126t-83 408zM430 581q0 -130 5 -189.5t20.5 -92.5t40 -43t68.5 -10t83 20v547 q-20 4 -66 4t-78 -13t-49 -45q-24 -48 -24 -178z" />
<glyph unicode="r" horiz-adv-x="782" d="M104 72v991h197q45 0 63.5 -15.5t34.5 -66.5l17 -55q43 68 106 105.5t139 37.5t76 -72v-235q-14 2 -27 2h-28q-170 0 -236 -55v-709h-266q-76 0 -76 72z" />
<glyph unicode="s" horiz-adv-x="923" d="M66 743q0 286 233 333q72 14 175 14q167 0 284 -50q37 -16 51 -35.5t14 -62.5v-137q-236 14 -301.5 14t-101 -11t-35.5 -53t34 -58.5t112.5 -36t143 -42t105.5 -58.5q82 -72 82 -228q0 -289 -240 -342q-73 -17 -169 -17t-183.5 16.5t-126.5 33t-52 40t-13 58.5v137 q201 -14 299 -14t131 15t33 63q0 37 -23 51q-28 18 -118.5 39.5t-152 45t-102.5 58.5q-79 67 -79 227z" />
<glyph unicode="t" horiz-adv-x="796" d="M45 870v193h129l16 258h238q76 0 76 -72v-186h155q76 0 76 -72v-192h-231v-449q0 -108 94 -108h2h59q76 0 76 -72v-158q-120 -35 -226 -35q-74 0 -141 17q-206 52 -206 350v455h-41q-76 0 -76 71z" />
<glyph unicode="u" horiz-adv-x="1107" d="M104 336v727h267q76 0 75 -72v-620q0 -53 20.5 -79t84.5 -26t111 41v756h266q76 0 76 -72v-991h-197q-47 0 -64.5 15.5t-33.5 66.5l-13 37q-72 -78 -140.5 -111t-160.5 -33q-291 0 -291 361z" />
<glyph unicode="v" horiz-adv-x="1050" d="M55 1063h283q63 0 76 -74q39 -456 116 -704q81 255 125 778h263q65 0 65 -68q0 -18 -15 -118t-38 -205t-54 -214q-63 -225 -167 -458h-303q-43 0 -60.5 19.5t-28.5 41.5q-109 248 -168 497t-94 505z" />
<glyph unicode="w" horiz-adv-x="1464" d="M63 1063h267q74 0 78 -74q15 -431 59 -678l145 654h187q35 0 51 -18.5t24 -51.5l132 -584q40 223 55 587q4 97 8 165h254q41 0 54.5 -21.5t13.5 -49t-3 -55.5l-8 -60q-61 -493 -190 -877h-260q-58 0 -72 59l-127 531l-139 -590h-256q-43 0 -57.5 20.5t-22.5 42.5 q-80 242 -122 489t-71 511z" />
<glyph unicode="x" horiz-adv-x="1044" d="M39 1063h303q68 0 86 -74q55 -197 102 -287q70 160 121 361h260q68 0 68 -59q0 -26 -31 -103q-73 -188 -209 -354q136 -162 229 -397q29 -76 48 -150h-305q-35 0 -51.5 17.5t-33.5 76.5q-49 166 -112 285q-56 -108 -93.5 -225t-45.5 -154h-266q-66 0 -66 59 q0 18 24.5 88.5t91 189t144.5 212.5q-131 176 -216 375q-30 71 -48 139z" />
<glyph unicode="y" horiz-adv-x="1054" d="M53 1063h285q66 0 77 -83t22.5 -167t25.5 -165q29 -167 76 -333q64 263 88 459.5t35 288.5h260q67 0 67 -68q0 -23 -6 -54.5t-16 -84.5t-28.5 -141t-42.5 -181q-58 -226 -110.5 -359.5t-103.5 -230t-112 -164.5q-124 -138 -298 -138q-89 0 -131.5 14t-56.5 33.5t-14 56.5 v164q36 -4 91.5 -4t89.5 6t57 18q39 21 67 70l12 23q-243 401 -334 1040z" />
<glyph unicode="z" horiz-adv-x="937" d="M66 72v170q96 154 210.5 295t219.5 262h-353q-76 0 -75 71v193h718q76 0 76 -72v-180q-165 -189 -434 -547h369q76 0 75 -71v-193h-731q-76 0 -75 72z" />
<glyph unicode="{" horiz-adv-x="727" d="M63 604v234q47 4 77 28.5t30 94.5v325q0 163 56 226q61 69 218 69q125 0 170.5 -17t56.5 -45t11 -61v-131h-104q-63 0 -79 -23.5t-16 -86.5v-244q0 -100 -32.5 -162.5t-102.5 -99.5q70 -37 102.5 -99.5t32.5 -162.5v-265q0 -63 15.5 -85.5t79.5 -22.5h34q49 0 59.5 -21.5 t10.5 -48.5v-133q-83 -51 -240 -51q-158 0 -216 68q-56 65 -56 227v325q0 59 -17.5 83t-58.5 36q-31 10 -31 43z" />
<glyph unicode="|" horiz-adv-x="679" d="M180 -98v1671h244q76 0 76 -72v-1671h-244q-76 0 -76 72z" />
<glyph unicode="}" horiz-adv-x="727" d="M45 -55v131h105q63 0 78.5 22.5t15.5 85.5v246q0 100 32.5 162.5t102.5 99.5q-70 37 -102.5 99.5t-32.5 162.5v265q0 63 -15.5 85.5t-78.5 22.5h-35q-49 0 -59.5 21.5t-10.5 48.5v133q83 51 240 51q158 0 217 -69q55 -64 55 -226v-325q0 -59 17.5 -83t58.5 -36 q31 -10 31 -43v-234q-47 -4 -77 -28.5t-30 -94.5v-325q0 -163 -57 -227q-60 -68 -217 -68q-125 0 -170.5 17t-56.5 45t-11 61z" />
<glyph unicode="~" d="M86 563.5q0 65.5 12.5 122.5t43.5 99q70 92 225 92q72 0 117.5 -19.5t78.5 -40t52.5 -33t34.5 -19.5q26 -13 55.5 -13t37 29.5t7.5 88.5h194q41 0 54.5 -18t13.5 -65.5t-12.5 -104.5t-43.5 -99q-69 -91 -225 -91q-72 0 -118 20t-79 40.5t-52 33t-34 19.5q-26 13 -56 13 t-37 -30.5t-7 -89.5h-194q-68 0 -68 65.5z" />
<glyph unicode="&#xa1;" horiz-adv-x="638" d="M123 905q0 96 45 139t151 43t151.5 -43t45.5 -139t-45 -139t-152 -43q-106 0 -151 43t-45 139zM143 -57q0 244 56 661h180q31 0 47.5 -17.5t24.5 -73t16 -135t14 -157.5q15 -195 15 -268v-301h-277q-76 0 -76 72v219z" />
<glyph unicode="&#xa2;" d="M160 709q0 296 108 423q110 130 369 130h4l14 157h103q58 0 53 -63l-10 -109q120 -17 145 -69q12 -25 12 -66v-129q-25 2 -180 10l-51 -563l135 4q49 0 72.5 -18.5t23.5 -61.5v-131q-121 -57 -256 -63l-16 -185h-102q-59 0 -54 64l11 127q-207 24 -295 152 q-86 125 -86 391zM457 760q0 -191 22.5 -250t85.5 -72l51 553q-95 -8 -128 -63q-31 -51 -31 -168z" />
<glyph unicode="&#xa3;" d="M117 655v174h129q-23 82 -23 179q0 205 105.5 308t337.5 103q168 0 249 -45q35 -16 47.5 -40.5t12.5 -65.5v-154q-147 10 -245 10t-137.5 -42t-39.5 -115.5t14 -137.5h228q76 0 75 -71v-174h-278q-7 -175 -113 -297h465q76 0 76 -72v-215h-795q-76 0 -75 72v213 q63 77 83 120q39 82 39 177v2h-79q-76 0 -76 71z" />
<glyph unicode="&#xa4;" d="M41 1028l131 131q49 51 98 -2l97 -96q88 37 180 37t184 -37l148 145l131 -131q51 -49 -2 -98l-86 -86q45 -84 45 -194.5t-45 -194.5l135 -137l-131 -132q-49 -51 -99 3l-96 96q-87 -37 -186 -37t-178 37l-148 -146l-131 131q-51 49 2 99l86 86q-45 80 -45 192.5t45 196.5 zM391 696q0 -72 37 -118t121 -46t121 46.5t37 117.5q0 72 -37 118t-121 46t-121 -46t-37 -118z" />
<glyph unicode="&#xa5;" d="M23 1386h309q45 0 56 -22.5t26 -87.5q48 -202 145 -445q115 292 174 555h256q66 0 66 -65q0 -24 -11 -59q-63 -232 -268 -566h146q68 0 67 -63v-135h-282v-127h215q68 0 67 -64v-135h-282v-172h-246q-70 0 -70 66v106h-215q-68 0 -67 64v135h282v127h-215q-68 0 -67 63 v135h213q-98 168 -177 335t-122 355z" />
<glyph unicode="&#xa6;" horiz-adv-x="679" d="M180 -98v608h244q76 0 76 -72v-608h-244q-76 0 -76 72zM180 965v608h244q76 0 76 -72v-608h-244q-76 0 -76 72z" />
<glyph unicode="&#xa7;" horiz-adv-x="1120" d="M80 628q0 171 162 269q-45 41 -65.5 88t-20.5 137t31.5 155.5t86.5 102.5q100 66 289 66q186 0 299 -45q37 -16 51.5 -35.5t14.5 -62.5v-142q-253 15 -315 15t-106 -9.5t-44 -49.5t38 -55t145.5 -40t188 -60.5t125.5 -81.5q80 -80 80 -243q0 -100 -42 -165.5t-115 -113.5 q57 -39 80.5 -90t23.5 -145t-32.5 -160.5t-90.5 -106.5q-107 -73 -315 -73q-227 0 -340 45q-64 28 -64 98v142q210 -15 315 -15t158.5 12.5t53.5 56.5t-39 60.5t-153.5 43t-194.5 63.5t-125 84q-80 84 -80 255zM391 645q0 -79 53 -111q27 -16 72 -26t111 -25l41 -8 q61 52 61 133q0 80 -52 110q-32 20 -183 52l-41 8q-62 -53 -62 -133z" />
<glyph unicode="&#xa8;" horiz-adv-x="892" d="M53 1321q0 80 39 117t133 37t133 -37t39 -117t-39 -116t-133 -36t-133 36t-39 116zM496 1321q0 80 38.5 117t133.5 37q94 0 133 -37t39 -117t-39 -116t-133 -36t-133 36t-39 116z" />
<glyph unicode="&#xa9;" horiz-adv-x="1609" d="M102 709q0 346 186 538q187 193 517 193t517 -193q185 -191 185 -538q0 -348 -185 -539q-187 -193 -517 -193t-517 193q-186 192 -186 539zM311 709q0 -387 269 -497q94 -38 225 -38q252 0 377 146q116 135 116 389q0 386 -269 496q-93 38 -224 38q-253 0 -378 -147 q-116 -136 -116 -387zM485 711q0 215 85 305t259 90q117 0 172 -29q29 -12 37.5 -30.5t8.5 -49.5v-104q-70 6 -154 6t-116 -41t-32 -149q0 -109 31 -149t101 -40l112 4q63 0 64 -59v-107q-110 -45 -222 -45q-176 0 -261 91.5t-85 306.5z" />
<glyph unicode="&#xaa;" horiz-adv-x="757" d="M76 977q0 169 168 197q51 8 112 8h80v37q0 33 -28.5 43t-85.5 10l-158 -6q-33 0 -43 16t-10 33v90q105 41 261.5 41t224 -61.5t67.5 -178.5v-432h-129q-31 0 -43.5 9.5t-26.5 37.5l-10 21q-82 -76 -176 -76t-148.5 50t-54.5 161zM94 551v117h494q76 0 76 -72v-117h-494 q-76 0 -76 72zM279 987q0 -63 73 -63q44 0 84 20v113h-74q-41 0 -62 -15.5t-21 -54.5z" />
<glyph unicode="&#xab;" horiz-adv-x="1050" d="M68 530l192 398h201q49 0 49 -47q0 -22 -12 -52l-121 -299l151 -399h-227q-35 0 -50 18.5t-28 45.5zM531 530l192 398h201q49 0 49 -47q0 -22 -12 -52l-121 -299l151 -399h-227q-35 0 -50 18.5t-28 45.5z" />
<glyph unicode="&#xac;" d="M117 721v209h768q76 0 76 -72v-536h-230q-72 0 -72 75v252h-466q-76 0 -76 72z" />
<glyph unicode="&#xad;" horiz-adv-x="794" d="M78 479v234h563q76 0 76 -72v-233h-563q-76 0 -76 71z" />
<glyph unicode="&#xae;" horiz-adv-x="991" d="M61 1063q0 205 116 321.5t319 116.5t318.5 -116.5t115.5 -321.5t-115.5 -321.5t-318.5 -116.5t-319 116.5t-116 321.5zM197 1063q0 -160 78 -236.5t221 -76.5t221 76.5t78 236.5t-78 236.5t-221 76.5t-221 -76.5t-78 -236.5zM326 881v393q82 16 169.5 16t134 -33.5 t46.5 -110.5t-62 -120q48 -64 72 -178h-104q-31 0 -39 26q-16 54 -39 119h-51v-145h-93q-35 0 -34 33zM453 1077h36q23 0 38.5 11.5t15.5 51.5t-14.5 50t-30.5 10h-25q-10 0 -20 -2v-121z" />
<glyph unicode="&#xaf;" horiz-adv-x="892" d="M150 1268v168h518q76 0 75 -72v-168h-518q-76 0 -75 72z" />
<glyph unicode="&#xb0;" horiz-adv-x="720" d="M76 1157q0 129 77.5 207t206.5 78t207 -78t78 -207t-78 -207t-207 -78t-206.5 78t-77.5 207zM248 1157q0 -53 29.5 -85t82.5 -32t83 32t30 85t-29.5 85t-83.5 32q-53 0 -82.5 -32t-29.5 -85z" />
<glyph unicode="&#xb1;" d="M117 72v198h786q76 0 76 -71v-199h-786q-76 0 -76 72zM117 723v199h280v284h230q72 0 71 -76v-208h205q76 0 76 -72v-199h-281v-286h-229q-72 0 -72 75v211h-204q-76 0 -76 72z" />
<glyph unicode="&#xb2;" horiz-adv-x="780" d="M96 629v53q0 99 62 188q47 66 135 123q43 29 71.5 47.5t45.5 33.5q32 28 32 65t-21.5 56t-80.5 19l-168 -6q-61 0 -61 58v96q100 41 265 41q310 0 310 -258q0 -78 -30.5 -122t-106.5 -93t-128 -89t-69 -83h277q63 0 63 -56v-129h-532q-64 0 -64 56z" />
<glyph unicode="&#xb3;" horiz-adv-x="780" d="M94 651v105q152 -13 226.5 -13t97 20.5t22.5 55.5t-17 57.5t-83 22.5h-55q-29 0 -46.5 14.5t-17.5 40.5v121h125q59 0 72 17q18 23 18 59q0 66 -108 66l-162 -5q-61 0 -62 58v92q100 41 263.5 41t233 -59.5t69.5 -173.5t-115 -171q129 -65 129 -192q0 -248 -324 -248 q-140 0 -192.5 18.5t-63 35t-10.5 38.5z" />
<glyph unicode="&#xb4;" horiz-adv-x="892" d="M300 1190.5q-7 21.5 12 73.5q53 138 126 252h254q27 0 40 -12.5t13 -30.5t-14 -39l-217 -265h-174q-33 0 -40 21.5z" />
<glyph unicode="&#xb5;" horiz-adv-x="1107" d="M104 -276v1339h267q76 0 75 -72v-620q0 -53 20.5 -79t84.5 -26t111 41v756h266q76 0 76 -72v-991h-197q-47 0 -64.5 15.5t-33.5 66.5l-13 37q-47 -47 -95 -81t-116 -34h-21q-13 0 -30 4q12 -153 12 -280v-76h-266q-76 0 -76 72z" />
<glyph unicode="&#xb6;" horiz-adv-x="1265" d="M80 965q0 267 140 371q141 104 501 104q135 0 243.5 -15.5t132 -21.5t41.5 -17q36 -21 36 -77v-152h-89q17 -185 17 -414v-913h-178q-35 0 -60.5 18.5t-25.5 53.5v1265q-44 7 -76 7h-44q-11 0 -32 -3v-1341h-178q-35 0 -60.5 18.5t-25.5 53.5v624q-172 26 -251 116 q-91 103 -91 323z" />
<glyph unicode="&#xb7;" horiz-adv-x="593" d="M100 696q0 96 45 139.5t152 43.5q106 0 151.5 -43.5t45.5 -139.5t-45.5 -139t-151.5 -43t-151.5 43t-45.5 139z" />
<glyph unicode="&#xb8;" horiz-adv-x="892" d="M270 -307h45q119 0 128 33q3 12 3 28t-12 27.5t-55 20.5t-53.5 17.5t-10.5 25.5q0 26 19 79l31 86h153l-41 -114l27 -7q86 -20 119.5 -53t33.5 -92q0 -180 -227 -180q-83 0 -115.5 6t-38.5 21.5t-6 37.5v64z" />
<glyph unicode="&#xb9;" horiz-adv-x="780" d="M117 1157v143l121 41q180 62 276 62q35 0 49.5 -16.5t14.5 -38.5v-775h-195q-61 0 -61 56v530l-111 -35q-20 -8 -51 -8q-43 0 -43 41z" />
<glyph unicode="&#xba;" horiz-adv-x="757" d="M74 1104.5q0 185.5 72.5 263.5t232.5 78t232.5 -78t72.5 -264q0 -185 -73 -264q-72 -78 -232 -78q-161 0 -233 78q-72 79 -72 264.5zM94 551v117h494q76 0 76 -72v-117h-494q-76 0 -76 72zM303 1104q0 -111 12.5 -135.5t26.5 -29.5t37 -5q46 0 58 24q18 35 18 146 t-12.5 135.5t-27 29.5t-36.5 5q-46 0 -58 -24q-18 -35 -18 -146z" />
<glyph unicode="&#xbb;" horiz-adv-x="1050" d="M59 928h228q35 0 50 -18.5t28 -45.5l155 -336l-192 -397h-201q-49 0 -49 47q0 23 12 51l121 299zM522 928h228q35 0 50 -18.5t28 -45.5l155 -336l-192 -397h-201q-49 0 -49 47q0 23 12 51l121 299z" />
<glyph unicode="&#xbc;" horiz-adv-x="1904" d="M117 1157v143l121 41q180 62 276 62q35 0 49.5 -16.5t14.5 -38.5v-775h-195q-61 0 -61 56v530l-111 -35q-20 -8 -51 -8q-43 0 -43 41zM443 45q0 18 10 35l792 1306h189q53 0 53 -45q0 -18 -10 -34l-793 -1307h-188q-53 0 -53 45zM1190 224v114q59 182 212 367 q52 63 107 110h199q63 0 63 -57v-424h12q57 0 58 -55v-111h-70v-166h-155q-63 0 -64 56v110h-299q-63 0 -63 56zM1372 334h180v301q-126 -151 -180 -301z" />
<glyph unicode="&#xbd;" horiz-adv-x="1904" d="M117 1157v143l121 41q180 62 276 62q35 0 49.5 -16.5t14.5 -38.5v-775h-195q-61 0 -61 56v530l-111 -35q-20 -8 -51 -8q-43 0 -43 41zM392 45q0 18 10 35l792 1306h189q53 0 53 -45q0 -18 -10 -34l-793 -1307h-188q-53 0 -53 45zM1220 58v53q0 99 62 188q47 66 135 123 q43 29 71.5 47.5t45.5 33.5q32 28 32 65t-21.5 56t-80.5 19l-168 -6q-61 0 -61 58v96q100 41 265 41q310 0 310 -258q0 -78 -30.5 -122t-106.5 -93t-128 -89t-69 -83h277q63 0 63 -56v-129h-532q-64 0 -64 56z" />
<glyph unicode="&#xbe;" horiz-adv-x="1904" d="M94 651v105q152 -13 226.5 -13t97 20.5t22.5 55.5t-17 57.5t-83 22.5h-55q-29 0 -46.5 14.5t-17.5 40.5v121h125q59 0 72 17q18 23 18 59q0 66 -108 66l-162 -5q-61 0 -62 58v92q100 41 263.5 41t233 -59.5t69.5 -173.5t-115 -171q129 -65 129 -192q0 -248 -324 -248 q-140 0 -192.5 18.5t-63 35t-10.5 38.5zM459 45q0 18 10 35l792 1306h189q53 0 53 -45q0 -18 -10 -34l-793 -1307h-188q-53 0 -53 45zM1190 224v114q59 182 212 367q52 63 107 110h199q63 0 63 -57v-424h12q57 0 58 -55v-111h-70v-166h-155q-63 0 -64 56v110h-299 q-63 0 -63 56zM1372 334h180v301q-126 -151 -180 -301z" />
<glyph unicode="&#xbf;" horiz-adv-x="901" d="M66 0q0 181 99 286q34 36 75 70.5t68.5 58t47.5 45.5q40 44 47 101l7 43h182q49 0 67.5 -49t18.5 -114.5t-41 -115t-87 -91.5t-69.5 -65.5t-36.5 -42.5q-26 -37 -26 -79.5t13 -66t37 -36.5q39 -20 126 -20l180 6q37 0 51.5 -17t14.5 -52v-168q-157 -68 -315 -68 t-240 26.5t-131 76.5q-88 87 -88 272zM322 905q0 96 45 139t151 43t151.5 -43t45.5 -139t-45 -139t-152 -43q-106 0 -151 43t-45 139z" />
<glyph unicode="&#xc0;" horiz-adv-x="1181" d="M66 80q0 40 8 78q123 749 301 1261h370q41 0 57.5 -20.5t24.5 -42.5q176 -525 303 -1356h-294q-66 0 -76 74l-33 274h-287q-28 -216 -37 -348h-274q-63 0 -63 80zM245 1851h299q47 0 65.5 -11t44.5 -64q48 -96 103 -250h-186q-63 0 -94 43zM467 602h233q-23 119 -48 251 t-68 304q-55 -221 -117 -555z" />
<glyph unicode="&#xc1;" horiz-adv-x="1181" d="M66 80q0 40 8 78q123 749 301 1261h370q41 0 57.5 -20.5t24.5 -42.5q176 -525 303 -1356h-294q-66 0 -76 74l-33 274h-287q-28 -216 -37 -348h-274q-63 0 -63 80zM435 1546.5q-7 20.5 14 68.5q53 125 130 236h264q54 0 54 -39q0 -19 -23 -47l-217 -239h-180 q-35 0 -42 20.5zM467 602h233q-23 119 -48 251t-68 304q-55 -221 -117 -555z" />
<glyph unicode="&#xc2;" horiz-adv-x="1181" d="M66 80q0 40 8 78q123 749 301 1261h370q41 0 57.5 -20.5t24.5 -42.5q176 -525 303 -1356h-294q-66 0 -76 74l-33 274h-287q-28 -216 -37 -348h-274q-63 0 -63 80zM284 1546q-17 57 166 305h242q29 0 44 -13t46 -60q55 -83 133 -252h-168q-35 0 -48 9t-34 42l-76 121 l-108 -172h-156q-35 0 -41 20zM467 602h233q-23 119 -48 251t-68 304q-55 -221 -117 -555z" />
<glyph unicode="&#xc3;" horiz-adv-x="1181" d="M66 80q0 40 8 78q123 749 301 1261h370q41 0 57.5 -20.5t24.5 -42.5q176 -525 303 -1356h-294q-66 0 -76 74l-33 274h-287q-28 -216 -37 -348h-274q-63 0 -63 80zM243 1591q0 248 213 248q92 0 143.5 -43t72 -56.5t49 -13.5t37 27t8.5 80h118q54 0 54 -51 q0 -248 -213 -248q-92 0 -143.5 43t-72 56.5t-49 13.5t-37 -27t-8.5 -80h-118q-54 0 -54 51zM467 602h233q-23 119 -48 251t-68 304q-55 -221 -117 -555z" />
<glyph unicode="&#xc4;" horiz-adv-x="1181" d="M66 80q0 40 8 78q123 749 301 1261h370q41 0 57.5 -20.5t24.5 -42.5q176 -525 303 -1356h-294q-66 0 -76 74l-33 274h-287q-28 -216 -37 -348h-274q-63 0 -63 80zM196 1671q0 80 39 117t133 37t133 -37t39 -117t-39 -115.5t-133 -35.5t-133 35.5t-39 115.5zM467 602h233 q-23 119 -48 251t-68 304q-55 -221 -117 -555zM639 1671q0 80 38.5 117t133.5 37q94 0 133 -37t39 -117t-39 -115.5t-133 -35.5t-133 35.5t-39 115.5z" />
<glyph unicode="&#xc5;" horiz-adv-x="1181" d="M66 80q0 40 8 78q123 749 301 1261h370q41 0 57.5 -20.5t24.5 -42.5q176 -525 303 -1356h-294q-66 0 -76 74l-33 274h-287q-28 -216 -37 -348h-274q-63 0 -63 80zM354 1696q0 96 56.5 158.5t178.5 62.5q123 0 179.5 -62.5t56.5 -158.5t-56.5 -158.5t-179.5 -62.5t-179 62 t-56 159zM467 602h233q-23 119 -48 251t-68 304q-55 -221 -117 -555zM487 1696q0 -99 102 -99q103 0 103 99q0 98 -103 98q-102 0 -102 -98z" />
<glyph unicode="&#xc6;" horiz-adv-x="1607" d="M41 72q0 33 27.5 139.5t81 278.5t116.5 338q135 359 271 591h897q76 0 75 -71v-232h-462v-239h327q76 0 76 -72v-232h-403v-270h403q80 0 80 -72v-231h-742q-76 0 -75 72v258h-271q-59 -218 -77 -330h-263q-61 0 -61 72zM512 614h201v557q-137 -328 -201 -557z" />
<glyph unicode="&#xc7;" horiz-adv-x="1030" d="M98 709q0 411 124 577q120 160 413 160q156 0 248 -45q37 -18 49 -43t12 -66v-151q-152 10 -238 10t-130 -19.5t-70 -67.5q-43 -82 -43 -345t45 -357q44 -92 162 -92l215 9q74 0 73 -74v-168q-117 -50 -280 -62l-29 -79l27 -7q86 -20 119.5 -53t33.5 -92 q0 -180 -227 -180q-83 0 -115.5 6t-38.5 21.5t-6 37.5v64h45q119 0 128 33q3 12 3 28t-12 27.5t-55 20.5t-53.5 17.5t-10.5 25.5q0 26 19 79l18 53q-208 17 -311 176q-115 178 -115 556z" />
<glyph unicode="&#xc8;" horiz-adv-x="1062" d="M121 72v1347h768q76 0 76 -71v-211h-496v-271h360q76 0 76 -71v-211h-436v-301h440q76 0 76 -72v-211h-788q-76 0 -76 72zM194 1851h299q47 0 65.5 -11t44.5 -64q48 -96 103 -250h-186q-63 0 -94 43z" />
<glyph unicode="&#xc9;" horiz-adv-x="1062" d="M121 72v1347h768q76 0 76 -71v-211h-496v-271h360q76 0 76 -71v-211h-436v-301h440q76 0 76 -72v-211h-788q-76 0 -76 72zM384 1546.5q-7 20.5 14 68.5q53 125 130 236h264q54 0 54 -39q0 -19 -23 -47l-217 -239h-180q-35 0 -42 20.5z" />
<glyph unicode="&#xca;" horiz-adv-x="1062" d="M121 72v1347h768q76 0 76 -71v-211h-496v-271h360q76 0 76 -71v-211h-436v-301h440q76 0 76 -72v-211h-788q-76 0 -76 72zM233 1546q-17 57 166 305h242q29 0 44 -13t46 -60q55 -83 133 -252h-168q-35 0 -48 9t-34 42l-76 121l-108 -172h-156q-35 0 -41 20z" />
<glyph unicode="&#xcb;" horiz-adv-x="1062" d="M121 72v1347h768q76 0 76 -71v-211h-496v-271h360q76 0 76 -71v-211h-436v-301h440q76 0 76 -72v-211h-788q-76 0 -76 72zM145 1671q0 80 39 117t133 37t133 -37t39 -117t-39 -115.5t-133 -35.5t-133 35.5t-39 115.5zM588 1671q0 80 38.5 117t133.5 37q94 0 133 -37 t39 -117t-39 -115.5t-133 -35.5t-133 35.5t-39 115.5z" />
<glyph unicode="&#xcc;" horiz-adv-x="604" d="M-41 1851h299q47 0 65.5 -11t44.5 -64q48 -96 103 -250h-186q-63 0 -94 43zM123 72v1347h283q76 0 75 -71v-1348h-282q-76 0 -76 72z" />
<glyph unicode="&#xcd;" horiz-adv-x="604" d="M123 72v1347h283q76 0 75 -71v-1348h-282q-76 0 -76 72zM149 1546.5q-7 20.5 14 68.5q53 125 130 236h264q54 0 54 -39q0 -19 -23 -47l-217 -239h-180q-35 0 -42 20.5z" />
<glyph unicode="&#xce;" horiz-adv-x="604" d="M-2 1546q-17 57 166 305h242q29 0 44 -13t46 -60q55 -83 133 -252h-168q-35 0 -48 9t-34 42l-76 121l-108 -172h-156q-35 0 -41 20zM123 72v1347h283q76 0 75 -71v-1348h-282q-76 0 -76 72z" />
<glyph unicode="&#xcf;" horiz-adv-x="604" d="M-90 1671q0 80 39 117t133 37t133 -37t39 -117t-39 -115.5t-133 -35.5t-133 35.5t-39 115.5zM123 72v1347h283q76 0 75 -71v-1348h-282q-76 0 -76 72zM353 1671q0 80 38.5 117t133.5 37q94 0 133 -37t39 -117t-39 -115.5t-133 -35.5t-133 35.5t-39 115.5z" />
<glyph unicode="&#xd0;" horiz-adv-x="1300" d="M31 682v162h141v551q233 45 410 45t287 -28t183 -108q150 -161 150 -589q0 -425 -148 -582q-73 -78 -181.5 -105.5t-249.5 -27.5h-375q-76 0 -76 72v546h-74q-68 0 -67 64zM524 272h84q68 0 112 13.5t70 60.5q50 88 50 381q0 283 -46 368q-24 46 -65 60t-106 14t-99 -4 v-321h111q68 0 67 -64v-162h-178v-346z" />
<glyph unicode="&#xd1;" horiz-adv-x="1265" d="M121 72v1347h268q53 0 89 -72.5t80 -162.5t89 -188q118 -259 172 -396v819h250q76 0 76 -71v-1348h-281q-52 0 -80 74q-226 574 -338 786v-860h-249q-76 0 -76 72zM286 1591q0 248 213 248q92 0 143.5 -43t72 -56.5t49 -13.5t37 27t8.5 80h118q54 0 54 -51 q0 -248 -213 -248q-92 0 -143.5 43t-72 56.5t-49 13.5t-37 -27t-8.5 -80h-118q-54 0 -54 51z" />
<glyph unicode="&#xd2;" horiz-adv-x="1265" d="M98 709q0 439 148 607q69 79 167.5 104.5t218.5 25.5t219 -25.5t169 -104.5q147 -166 147 -607q0 -443 -147 -607q-70 -79 -169 -105t-219 -26t-218.5 26t-167.5 105q-148 166 -148 607zM288 1851h299q47 0 65.5 -11t44.5 -64q48 -96 103 -250h-186q-63 0 -94 43z M461 708q0 -144 7 -233.5t25.5 -138.5t52.5 -65.5t87 -16.5t87 16.5t52 65.5q33 86 33 301t-7 304t-25.5 138t-52.5 66.5t-87 17.5t-87 -17.5t-52.5 -66.5t-25.5 -138t-7 -233z" />
<glyph unicode="&#xd3;" horiz-adv-x="1265" d="M98 709q0 439 148 607q69 79 167.5 104.5t218.5 25.5t219 -25.5t169 -104.5q147 -166 147 -607q0 -443 -147 -607q-70 -79 -169 -105t-219 -26t-218.5 26t-167.5 105q-148 166 -148 607zM461 708q0 -144 7 -233.5t25.5 -138.5t52.5 -65.5t87 -16.5t87 16.5t52 65.5 q33 86 33 301t-7 304t-25.5 138t-52.5 66.5t-87 17.5t-87 -17.5t-52.5 -66.5t-25.5 -138t-7 -233zM478 1546.5q-7 20.5 14 68.5q53 125 130 236h264q54 0 54 -39q0 -19 -23 -47l-217 -239h-180q-35 0 -42 20.5z" />
<glyph unicode="&#xd4;" horiz-adv-x="1265" d="M98 709q0 439 148 607q69 79 167.5 104.5t218.5 25.5t219 -25.5t169 -104.5q147 -166 147 -607q0 -443 -147 -607q-70 -79 -169 -105t-219 -26t-218.5 26t-167.5 105q-148 166 -148 607zM327 1546q-17 57 166 305h242q29 0 44 -13t46 -60q55 -83 133 -252h-168 q-35 0 -48 9t-34 42l-76 121l-108 -172h-156q-35 0 -41 20zM461 708q0 -144 7 -233.5t25.5 -138.5t52.5 -65.5t87 -16.5t87 16.5t52 65.5q33 86 33 301t-7 304t-25.5 138t-52.5 66.5t-87 17.5t-87 -17.5t-52.5 -66.5t-25.5 -138t-7 -233z" />
<glyph unicode="&#xd5;" horiz-adv-x="1265" d="M98 709q0 439 148 607q69 79 167.5 104.5t218.5 25.5t219 -25.5t169 -104.5q147 -166 147 -607q0 -443 -147 -607q-70 -79 -169 -105t-219 -26t-218.5 26t-167.5 105q-148 166 -148 607zM286 1591q0 248 213 248q92 0 143.5 -43t72 -56.5t49 -13.5t37 27t8.5 80h118 q54 0 54 -51q0 -248 -213 -248q-92 0 -143.5 43t-72 56.5t-49 13.5t-37 -27t-8.5 -80h-118q-54 0 -54 51zM461 708q0 -144 7 -233.5t25.5 -138.5t52.5 -65.5t87 -16.5t87 16.5t52 65.5q33 86 33 301t-7 304t-25.5 138t-52.5 66.5t-87 17.5t-87 -17.5t-52.5 -66.5t-25.5 -138 t-7 -233z" />
<glyph unicode="&#xd6;" horiz-adv-x="1265" d="M98 709q0 439 148 607q69 79 167.5 104.5t218.5 25.5t219 -25.5t169 -104.5q147 -166 147 -607q0 -443 -147 -607q-70 -79 -169 -105t-219 -26t-218.5 26t-167.5 105q-148 166 -148 607zM239 1671q0 80 39 117t133 37t133 -37t39 -117t-39 -115.5t-133 -35.5t-133 35.5 t-39 115.5zM461 708q0 -144 7 -233.5t25.5 -138.5t52.5 -65.5t87 -16.5t87 16.5t52 65.5q33 86 33 301t-7 304t-25.5 138t-52.5 66.5t-87 17.5t-87 -17.5t-52.5 -66.5t-25.5 -138t-7 -233zM682 1671q0 80 38.5 117t133.5 37q94 0 133 -37t39 -117t-39 -115.5t-133 -35.5 t-133 35.5t-39 115.5z" />
<glyph unicode="&#xd7;" d="M115 924l153 153q51 51 105 -2l174 -176l229 229l154 -153q51 -51 -2 -105l-176 -176l229 -227l-154 -154q-51 -51 -104 2l-176 177l-228 -230l-153 154q-52 52 2 104l176 174z" />
<glyph unicode="&#xd8;" horiz-adv-x="1265" d="M96 -23q0 23 17 52l86 141q-101 177 -101 539q0 439 148 607q69 79 167.5 104.5t219.5 25.5q189 0 303 -66l68 109h106q55 0 55 -49q0 -23 -16 -51l-84 -140q102 -175 102 -540q0 -443 -147 -607q-70 -79 -169 -105t-218 -26q-197 0 -307 68l-68 -111h-106q-55 0 -56 49z M444 638q0 -34 2 -63l324 533q-39 59 -137 59q-55 0 -92 -16t-59 -65q-38 -89 -38 -377v-71zM492 313q23 -39 56.5 -51t86.5 -12t89 16.5t58 65.5q39 90 39 323v127q0 35 -2 66z" />
<glyph unicode="&#xd9;" horiz-adv-x="1222" d="M113 530v889h282q76 0 76 -71v-875q0 -112 21.5 -149t49 -50.5t73.5 -13.5t74 12.5t41 39.5q22 44 22 167v940h282q76 0 76 -71v-818q0 -129 -18.5 -232t-72.5 -176q-110 -149 -398 -149q-270 0 -385 115q-123 123 -123 442zM266 1851h299q47 0 65.5 -11t44.5 -64 q48 -96 103 -250h-186q-63 0 -94 43z" />
<glyph unicode="&#xda;" horiz-adv-x="1222" d="M113 530v889h282q76 0 76 -71v-875q0 -112 21.5 -149t49 -50.5t73.5 -13.5t74 12.5t41 39.5q22 44 22 167v940h282q76 0 76 -71v-818q0 -129 -18.5 -232t-72.5 -176q-110 -149 -398 -149q-270 0 -385 115q-123 123 -123 442zM456 1546.5q-7 20.5 14 68.5q53 125 130 236 h264q54 0 54 -39q0 -19 -23 -47l-217 -239h-180q-35 0 -42 20.5z" />
<glyph unicode="&#xdb;" horiz-adv-x="1222" d="M113 530v889h282q76 0 76 -71v-875q0 -112 21.5 -149t49 -50.5t73.5 -13.5t74 12.5t41 39.5q22 44 22 167v940h282q76 0 76 -71v-818q0 -129 -18.5 -232t-72.5 -176q-110 -149 -398 -149q-270 0 -385 115q-123 123 -123 442zM305 1546q-17 57 166 305h242q29 0 44 -13 t46 -60q55 -83 133 -252h-168q-35 0 -48 9t-34 42l-76 121l-108 -172h-156q-35 0 -41 20z" />
<glyph unicode="&#xdc;" horiz-adv-x="1222" d="M113 530v889h282q76 0 76 -71v-875q0 -112 21.5 -149t49 -50.5t73.5 -13.5t74 12.5t41 39.5q22 44 22 167v940h282q76 0 76 -71v-818q0 -129 -18.5 -232t-72.5 -176q-110 -149 -398 -149q-270 0 -385 115q-123 123 -123 442zM217 1671q0 80 39 117t133 37t133 -37 t39 -117t-39 -115.5t-133 -35.5t-133 35.5t-39 115.5zM660 1671q0 80 38.5 117t133.5 37q94 0 133 -37t39 -117t-39 -115.5t-133 -35.5t-133 35.5t-39 115.5z" />
<glyph unicode="&#xdd;" horiz-adv-x="1124" d="M23 1419h319q47 0 61.5 -23.5t29.5 -95.5q54 -256 138 -483q112 313 160 602h277q69 0 69 -71q0 -16 -10 -64q-86 -327 -326 -762v-522h-282q-76 0 -76 72v452q-257 470 -360 895zM409 1546.5q-7 20.5 14 68.5q53 125 130 236h264q54 0 54 -39q0 -19 -23 -47l-217 -239 h-180q-35 0 -42 20.5z" />
<glyph unicode="&#xde;" horiz-adv-x="1150" d="M121 72v1347h272q76 0 76 -71v-152q58 8 146.5 8t182 -23.5t154.5 -78.5q115 -105 115 -357t-104.5 -364.5t-321.5 -112.5q-90 0 -172 17v-285h-272q-76 0 -76 72zM469 537q56 -9 84 -9q88 0 129 43t41 169t-37 165t-111 39t-106 -4v-403z" />
<glyph unicode="&#xdf;" horiz-adv-x="1179" d="M102 72v975q0 349 287 423q92 23 213 23t207 -26.5t138 -71.5q97 -84 97 -238q0 -94 -26 -140q-45 -83 -125 -155q-39 -37 -49 -52t-10 -28.5t3 -22.5t16 -21q23 -23 104 -73q163 -100 163 -307t-89 -290.5t-265 -83.5q-171 0 -215 58q-14 19 -14 54v148q33 -2 55 -2h49 q84 0 110.5 30.5t26.5 65.5t-4 52.5t-16 33.5q-20 25 -96 82q-74 51 -99.5 99t-25.5 100.5t5 80t18 56.5q25 54 77 106t66 71t20 37q8 25 8 74q0 99 -135 99q-82 0 -117 -42t-35 -134v-1053h-266q-76 0 -76 72z" />
<glyph unicode="&#xe0;" horiz-adv-x="1060" d="M76 326q0 286 266 321q76 10 158 10h125v62q0 66 -45 81t-140 15l-235 -8q-39 0 -55.5 20.5t-16.5 46.5v144q157 69 386 69q437 0 437 -387v-700h-196q-46 0 -60 12q-22 20 -38 70l-13 33q-116 -127 -265.5 -127t-228.5 88t-79 250zM195 1516h288q45 0 63.5 -11.5 t42.5 -66.5q58 -134 99 -269h-176q-61 0 -92 45zM369 346q0 -63 30.5 -86.5t100 -23.5t123.5 40v183h-131q-123 0 -123 -113z" />
<glyph unicode="&#xe1;" horiz-adv-x="1060" d="M76 326q0 286 266 321q76 10 158 10h125v62q0 66 -45 81t-140 15l-235 -8q-39 0 -55.5 20.5t-16.5 46.5v144q157 69 386 69q437 0 437 -387v-700h-196q-46 0 -60 12q-22 20 -38 70l-13 33q-116 -127 -265.5 -127t-228.5 88t-79 250zM369 346q0 -63 30.5 -86.5t100 -23.5 t123.5 40v183h-131q-123 0 -123 -113zM382 1190.5q-7 21.5 12 73.5q53 138 126 252h254q27 0 40 -12.5t13 -30.5t-14 -39l-217 -265h-174q-33 0 -40 21.5z" />
<glyph unicode="&#xe2;" horiz-adv-x="1060" d="M76 326q0 286 266 321q76 10 158 10h125v62q0 66 -45 81t-140 15l-235 -8q-39 0 -55.5 20.5t-16.5 46.5v144q157 69 386 69q437 0 437 -387v-700h-196q-46 0 -60 12q-22 20 -38 70l-13 33q-116 -127 -265.5 -127t-228.5 88t-79 250zM235.5 1190.5q-6.5 21.5 16.5 75.5 q32 75 143 250h232q29 0 43 -13.5t44 -63.5q59 -98 128 -270h-162q-33 0 -46 7.5t-32 42.5l-74 129l-102 -179h-151q-33 0 -39.5 21.5zM369 346q0 -63 30.5 -86.5t100 -23.5t123.5 40v183h-131q-123 0 -123 -113z" />
<glyph unicode="&#xe3;" horiz-adv-x="1060" d="M76 326q0 286 266 321q76 10 158 10h125v62q0 66 -45 81t-140 15l-235 -8q-39 0 -55.5 20.5t-16.5 46.5v144q157 69 386 69q437 0 437 -387v-700h-196q-46 0 -60 12q-22 20 -38 70l-13 33q-116 -127 -265.5 -127t-228.5 88t-79 250zM182 1235q0 248 213 248 q90 0 142.5 -43t73 -56.5t49 -13.5t37 26.5t8.5 80.5h118q54 0 54 -53.5t-10.5 -98.5t-34.5 -78q-52 -69 -168 -69q-92 0 -143.5 43t-72 56t-49 13t-37 -26.5t-8.5 -79.5h-118q-33 0 -43.5 14t-10.5 37zM369 346q0 -63 30.5 -86.5t100 -23.5t123.5 40v183h-131 q-123 0 -123 -113z" />
<glyph unicode="&#xe4;" horiz-adv-x="1060" d="M76 326q0 286 266 321q76 10 158 10h125v62q0 66 -45 81t-140 15l-235 -8q-39 0 -55.5 20.5t-16.5 46.5v144q157 69 386 69q437 0 437 -387v-700h-196q-46 0 -60 12q-22 20 -38 70l-13 33q-116 -127 -265.5 -127t-228.5 88t-79 250zM135 1321q0 80 39 117t133 37t133 -37 t39 -117t-39 -116t-133 -36t-133 36t-39 116zM369 346q0 -63 30.5 -86.5t100 -23.5t123.5 40v183h-131q-123 0 -123 -113zM578 1321q0 80 38.5 117t133.5 37q94 0 133 -37t39 -117t-39 -116t-133 -36t-133 36t-39 116z" />
<glyph unicode="&#xe5;" horiz-adv-x="1060" d="M76 326q0 286 266 321q76 10 158 10h125v62q0 66 -45 81t-140 15l-235 -8q-39 0 -55.5 20.5t-16.5 46.5v144q157 69 386 69q437 0 437 -387v-700h-196q-46 0 -60 12q-22 20 -38 70l-13 33q-116 -127 -265.5 -127t-228.5 88t-79 250zM293 1372q0 96 56.5 158.5t178.5 62.5 q123 0 179.5 -62.5t56.5 -158.5t-56.5 -158.5t-179.5 -62.5t-179 62.5t-56 158.5zM369 346q0 -63 30.5 -86.5t100 -23.5t123.5 40v183h-131q-123 0 -123 -113zM426 1372q0 -98 102 -98q103 0 103 98t-103 98q-102 0 -102 -98z" />
<glyph unicode="&#xe6;" horiz-adv-x="1544" d="M76 324q0 202 128 278q91 55 288 55h122v62q0 66 -44 81t-136 15l-231 -8q-37 0 -53.5 20.5t-16.5 46.5v144q152 69 346 69q90 0 177 -31.5t128 -92.5q41 59 121 91.5t185.5 32.5t178 -34.5t115.5 -94.5q78 -110 78 -323q0 -78 -13 -138.5t-19 -74.5h-506q0 -104 49 -145 t155 -41l240 6q74 0 74 -74v-127q-157 -68 -350 -68q-246 0 -355 131q-120 -120 -288 -120q-179 0 -268 68q-105 80 -105 272zM362 346q0 -63 32 -86.5t89 -23.5q91 0 148 40q-17 67 -17 183h-131q-121 0 -121 -113zM924 621h254q0 127 -26 175t-98.5 48t-100 -51.5 t-29.5 -171.5z" />
<glyph unicode="&#xe7;" horiz-adv-x="897" d="M84 547.5q0 271.5 102.5 405.5t331.5 134q158 0 246 -45q37 -18 49 -42.5t12 -65.5v-133q-122 12 -197 12t-110 -13.5t-54 -45.5q-30 -51 -30 -176t6 -181.5t22 -88.5q29 -56 126 -56l145 4q47 0 69.5 -18.5t22.5 -61.5v-135q-121 -62 -262 -68l-26 -77l26 -7 q86 -20 120 -53t34 -80t-10.5 -79.5t-36.5 -57.5q-59 -55 -181 -55q-84 0 -115.5 6t-37.5 21.5t-6 37.5v64h45q119 0 128 33q3 12 3 28t-12 28q-12 10 -55 19.5t-53.5 18t-10.5 25.5q0 29 18 79l21 60q-176 29 -253 160.5t-77 403z" />
<glyph unicode="&#xe8;" horiz-adv-x="1032" d="M84 530q0 297 111.5 427t349.5 130q336 0 389 -273q16 -83 16 -141t-2 -89t-7 -62q-12 -75 -23 -100h-517q0 -104 50.5 -145t158.5 -41l244 6q76 0 76 -74v-127q-157 -68 -377 -68q-243 0 -355 129q-114 131 -114 428zM207 1516h288q45 0 63.5 -11.5t42.5 -66.5 q58 -134 99 -269h-176q-61 0 -92 45zM401 621h258q0 127 -25.5 175t-100 48t-102.5 -51.5t-30 -171.5z" />
<glyph unicode="&#xe9;" horiz-adv-x="1032" d="M84 530q0 297 111.5 427t349.5 130q336 0 389 -273q16 -83 16 -141t-2 -89t-7 -62q-12 -75 -23 -100h-517q0 -104 50.5 -145t158.5 -41l244 6q76 0 76 -74v-127q-157 -68 -377 -68q-243 0 -355 129q-114 131 -114 428zM394 1190.5q-7 21.5 12 73.5q53 138 126 252h254 q27 0 40 -12.5t13 -30.5t-14 -39l-217 -265h-174q-33 0 -40 21.5zM401 621h258q0 127 -25.5 175t-100 48t-102.5 -51.5t-30 -171.5z" />
<glyph unicode="&#xea;" horiz-adv-x="1032" d="M84 530q0 297 111.5 427t349.5 130q336 0 389 -273q16 -83 16 -141t-2 -89t-7 -62q-12 -75 -23 -100h-517q0 -104 50.5 -145t158.5 -41l244 6q76 0 76 -74v-127q-157 -68 -377 -68q-243 0 -355 129q-114 131 -114 428zM247.5 1190.5q-6.5 21.5 16.5 75.5q32 75 143 250 h232q29 0 43 -13.5t44 -63.5q59 -98 128 -270h-162q-33 0 -46 7.5t-32 42.5l-74 129l-102 -179h-151q-33 0 -39.5 21.5zM401 621h258q0 127 -25.5 175t-100 48t-102.5 -51.5t-30 -171.5z" />
<glyph unicode="&#xeb;" horiz-adv-x="1032" d="M84 530q0 297 111.5 427t349.5 130q336 0 389 -273q16 -83 16 -141t-2 -89t-7 -62q-12 -75 -23 -100h-517q0 -104 50.5 -145t158.5 -41l244 6q76 0 76 -74v-127q-157 -68 -377 -68q-243 0 -355 129q-114 131 -114 428zM147 1321q0 80 39 117t133 37t133 -37t39 -117 t-39 -116t-133 -36t-133 36t-39 116zM401 621h258q0 127 -25.5 175t-100 48t-102.5 -51.5t-30 -171.5zM590 1321q0 80 38.5 117t133.5 37q94 0 133 -37t39 -117t-39 -116t-133 -36t-133 36t-39 116z" />
<glyph unicode="&#xec;" horiz-adv-x="555" d="M-55 1516h288q45 0 63.5 -11.5t42.5 -66.5q58 -134 99 -269h-176q-61 0 -92 45zM106 72v991h267q76 0 76 -72v-991h-267q-76 0 -76 72z" />
<glyph unicode="&#xed;" horiz-adv-x="555" d="M106 72v991h267q76 0 76 -72v-991h-267q-76 0 -76 72zM132 1190.5q-7 21.5 12 73.5q53 138 126 252h254q27 0 40 -12.5t13 -30.5t-14 -39l-217 -265h-174q-33 0 -40 21.5z" />
<glyph unicode="&#xee;" horiz-adv-x="555" d="M-14.5 1190.5q-6.5 21.5 16.5 75.5q32 75 143 250h232q29 0 43 -13.5t44 -63.5q59 -98 128 -270h-162q-33 0 -46 7.5t-32 42.5l-74 129l-102 -179h-151q-33 0 -39.5 21.5zM106 72v991h267q76 0 76 -72v-991h-267q-76 0 -76 72z" />
<glyph unicode="&#xef;" horiz-adv-x="555" d="M-115 1321q0 80 39 117t133 37t133 -37t39 -117t-39 -116t-133 -36t-133 36t-39 116zM106 72v991h267q76 0 76 -72v-991h-267q-76 0 -76 72zM328 1321q0 80 38.5 117t133.5 37q94 0 133 -37t39 -117t-39 -116t-133 -36t-133 36t-39 116z" />
<glyph unicode="&#xf0;" horiz-adv-x="1095" d="M84 506q0 399 240 476q75 24 132 24q111 0 177 -29q-16 55 -42 107.5t-42 72.5l-187 -55q-75 -21 -75 39v123l162 45q-56 86 -138 184h281q46 0 70 -33l65 -74l160 46q76 21 76 -39l-2 -125l-136 -39q78 -115 132.5 -285t54.5 -357.5t-25.5 -301t-82.5 -183.5 q-105 -129 -357 -129q-248 0 -357 127q-106 123 -106 406zM430 553q0 -125 4 -181.5t16 -89.5q23 -57 97 -57q39 0 63.5 13.5t36.5 50.5q21 65 21 222t-17 251q-40 12 -83.5 12t-69 -9t-40.5 -37q-28 -50 -28 -175z" />
<glyph unicode="&#xf1;" horiz-adv-x="1107" d="M104 72v991h197q47 0 64.5 -15.5t33.5 -66.5l13 -37q72 78 140.5 110.5t160.5 32.5q291 0 291 -360v-727h-267q-76 0 -75 72v620q0 53 -20.5 79t-84.5 26t-111 -41v-756h-266q-76 0 -76 72zM206 1235q0 248 213 248q90 0 142.5 -43t73 -56.5t49 -13.5t37 26.5t8.5 80.5 h118q54 0 54 -53.5t-10.5 -98.5t-34.5 -78q-52 -69 -168 -69q-92 0 -143.5 43t-72 56t-49 13t-37 -26.5t-8.5 -79.5h-118q-33 0 -43.5 14t-10.5 37z" />
<glyph unicode="&#xf2;" horiz-adv-x="1101" d="M84 530q0 300 107.5 428.5t359.5 128.5t359.5 -128.5t107.5 -428.5q0 -297 -108 -426q-110 -131 -359 -131t-359 131q-108 129 -108 426zM217 1516h288q45 0 63.5 -11.5t42.5 -66.5q58 -134 99 -269h-176q-61 0 -92 45zM430 576.5q0 -146.5 5 -206t19.5 -91t37 -42 t59.5 -10.5t59.5 10.5t37 42t19.5 91t5 158.5t-5 157.5t-19.5 90.5t-37 42t-59.5 10t-59.5 -10t-37.5 -42q-24 -54 -24 -200.5z" />
<glyph unicode="&#xf3;" horiz-adv-x="1101" d="M84 530q0 300 107.5 428.5t359.5 128.5t359.5 -128.5t107.5 -428.5q0 -297 -108 -426q-110 -131 -359 -131t-359 131q-108 129 -108 426zM404 1190.5q-7 21.5 12 73.5q53 138 126 252h254q27 0 40 -12.5t13 -30.5t-14 -39l-217 -265h-174q-33 0 -40 21.5zM430 576.5 q0 -146.5 5 -206t19.5 -91t37 -42t59.5 -10.5t59.5 10.5t37 42t19.5 91t5 158.5t-5 157.5t-19.5 90.5t-37 42t-59.5 10t-59.5 -10t-37.5 -42q-24 -54 -24 -200.5z" />
<glyph unicode="&#xf4;" horiz-adv-x="1101" d="M84 530q0 300 107.5 428.5t359.5 128.5t359.5 -128.5t107.5 -428.5q0 -297 -108 -426q-110 -131 -359 -131t-359 131q-108 129 -108 426zM257.5 1190.5q-6.5 21.5 16.5 75.5q32 75 143 250h232q29 0 43 -13.5t44 -63.5q59 -98 128 -270h-162q-33 0 -46 7.5t-32 42.5 l-74 129l-102 -179h-151q-33 0 -39.5 21.5zM430 576.5q0 -146.5 5 -206t19.5 -91t37 -42t59.5 -10.5t59.5 10.5t37 42t19.5 91t5 158.5t-5 157.5t-19.5 90.5t-37 42t-59.5 10t-59.5 -10t-37.5 -42q-24 -54 -24 -200.5z" />
<glyph unicode="&#xf5;" horiz-adv-x="1101" d="M84 530q0 300 107.5 428.5t359.5 128.5t359.5 -128.5t107.5 -428.5q0 -297 -108 -426q-110 -131 -359 -131t-359 131q-108 129 -108 426zM204 1235q0 248 213 248q90 0 142.5 -43t73 -56.5t49 -13.5t37 26.5t8.5 80.5h118q54 0 54 -53.5t-10.5 -98.5t-34.5 -78 q-52 -69 -168 -69q-92 0 -143.5 43t-72 56t-49 13t-37 -26.5t-8.5 -79.5h-118q-33 0 -43.5 14t-10.5 37zM430 576.5q0 -146.5 5 -206t19.5 -91t37 -42t59.5 -10.5t59.5 10.5t37 42t19.5 91t5 158.5t-5 157.5t-19.5 90.5t-37 42t-59.5 10t-59.5 -10t-37.5 -42 q-24 -54 -24 -200.5z" />
<glyph unicode="&#xf6;" horiz-adv-x="1101" d="M84 530q0 300 107.5 428.5t359.5 128.5t359.5 -128.5t107.5 -428.5q0 -297 -108 -426q-110 -131 -359 -131t-359 131q-108 129 -108 426zM157 1321q0 80 39 117t133 37t133 -37t39 -117t-39 -116t-133 -36t-133 36t-39 116zM430 576.5q0 -146.5 5 -206t19.5 -91t37 -42 t59.5 -10.5t59.5 10.5t37 42t19.5 91t5 158.5t-5 157.5t-19.5 90.5t-37 42t-59.5 10t-59.5 -10t-37.5 -42q-24 -54 -24 -200.5zM600 1321q0 80 38.5 117t133.5 37q94 0 133 -37t39 -117t-39 -116t-133 -36t-133 36t-39 116z" />
<glyph unicode="&#xf7;" d="M117 625v209h786q76 0 76 -72v-209h-786q-76 0 -76 72zM381 322q0 80 38 117.5t128 37.5t128 -37.5t38 -117.5t-38 -118t-128 -38t-128 38t-38 118zM381 1065q0 80 38 118t128 38t128 -38t38 -118t-38 -118t-128 -38t-128 38t-38 118z" />
<glyph unicode="&#xf8;" horiz-adv-x="1101" d="M61 -23q0 26 19 52l86 116q-82 130 -82 385q0 300 107.5 428.5t359.5 128.5q166 0 266 -57l76 103h88q55 0 55 -50q0 -29 -18 -51l-84 -112q84 -131 84 -390q0 -297 -108 -426q-110 -131 -359 -131q-164 0 -270 60l-76 -105h-88q-56 0 -56 49zM406 471l243 332 q-31 33 -85 33t-81.5 -10.5t-44.5 -43.5q-32 -58 -32 -252v-59zM446 258q26 -37 86 -37t87.5 10.5t44.5 42.5q32 56 32 256v66z" />
<glyph unicode="&#xf9;" horiz-adv-x="1107" d="M104 336v727h267q76 0 75 -72v-620q0 -53 20.5 -79t84.5 -26t111 41v756h266q76 0 76 -72v-991h-197q-47 0 -64.5 15.5t-33.5 66.5l-13 37q-72 -78 -140.5 -111t-160.5 -33q-291 0 -291 361zM219 1516h288q45 0 63.5 -11.5t42.5 -66.5q58 -134 99 -269h-176q-61 0 -92 45 z" />
<glyph unicode="&#xfa;" horiz-adv-x="1107" d="M104 336v727h267q76 0 75 -72v-620q0 -53 20.5 -79t84.5 -26t111 41v756h266q76 0 76 -72v-991h-197q-47 0 -64.5 15.5t-33.5 66.5l-13 37q-72 -78 -140.5 -111t-160.5 -33q-291 0 -291 361zM406 1190.5q-7 21.5 12 73.5q53 138 126 252h254q27 0 40 -12.5t13 -30.5 t-14 -39l-217 -265h-174q-33 0 -40 21.5z" />
<glyph unicode="&#xfb;" horiz-adv-x="1107" d="M104 336v727h267q76 0 75 -72v-620q0 -53 20.5 -79t84.5 -26t111 41v756h266q76 0 76 -72v-991h-197q-47 0 -64.5 15.5t-33.5 66.5l-13 37q-72 -78 -140.5 -111t-160.5 -33q-291 0 -291 361zM259.5 1190.5q-6.5 21.5 16.5 75.5q32 75 143 250h232q29 0 43 -13.5t44 -63.5 q59 -98 128 -270h-162q-33 0 -46 7.5t-32 42.5l-74 129l-102 -179h-151q-33 0 -39.5 21.5z" />
<glyph unicode="&#xfc;" horiz-adv-x="1107" d="M104 336v727h267q76 0 75 -72v-620q0 -53 20.5 -79t84.5 -26t111 41v756h266q76 0 76 -72v-991h-197q-47 0 -64.5 15.5t-33.5 66.5l-13 37q-72 -78 -140.5 -111t-160.5 -33q-291 0 -291 361zM159 1321q0 80 39 117t133 37t133 -37t39 -117t-39 -116t-133 -36t-133 36 t-39 116zM602 1321q0 80 38.5 117t133.5 37q94 0 133 -37t39 -117t-39 -116t-133 -36t-133 36t-39 116z" />
<glyph unicode="&#xfd;" horiz-adv-x="1054" d="M53 1063h285q66 0 77 -83t22.5 -167t25.5 -165q29 -167 76 -333q64 263 88 459.5t35 288.5h260q67 0 67 -68q0 -23 -6 -54.5t-16 -84.5t-28.5 -141t-42.5 -181q-58 -226 -110.5 -359.5t-103.5 -230t-112 -164.5q-124 -138 -298 -138q-89 0 -131.5 14t-56.5 33.5t-14 56.5 v164q36 -4 91.5 -4t89.5 6t57 18q39 21 67 70l12 23q-243 401 -334 1040zM384 1190.5q-7 21.5 12 73.5q53 138 126 252h254q27 0 40 -12.5t13 -30.5t-14 -39l-217 -265h-174q-33 0 -40 21.5z" />
<glyph unicode="&#xfe;" horiz-adv-x="1099" d="M104 -276v1746h267q76 0 75 -71v-383q41 27 91.5 49t125.5 22t138 -27.5t111 -91.5q104 -138 104 -438q0 -288 -104 -424q-48 -63 -112.5 -89.5t-155 -26.5t-198.5 69v-407h-266q-76 0 -76 72zM446 266q39 -20 83 -20t71 12t42 44t21.5 89.5t6.5 145.5t-7.5 145t-23.5 90 q-29 59 -107 59q-47 0 -86 -20v-545z" />
<glyph unicode="&#xff;" horiz-adv-x="1054" d="M53 1063h285q66 0 77 -83t22.5 -167t25.5 -165q29 -167 76 -333q64 263 88 459.5t35 288.5h260q67 0 67 -68q0 -23 -6 -54.5t-16 -84.5t-28.5 -141t-42.5 -181q-58 -226 -110.5 -359.5t-103.5 -230t-112 -164.5q-124 -138 -298 -138q-89 0 -131.5 14t-56.5 33.5t-14 56.5 v164q36 -4 91.5 -4t89.5 6t57 18q39 21 67 70l12 23q-243 401 -334 1040zM137 1321q0 80 39 117t133 37t133 -37t39 -117t-39 -116t-133 -36t-133 36t-39 116zM580 1321q0 80 38.5 117t133.5 37q94 0 133 -37t39 -117t-39 -116t-133 -36t-133 36t-39 116z" />
<glyph unicode="&#x152;" horiz-adv-x="1658" d="M98 709q0 425 144 593q69 82 171.5 112t227 30t209.5 -25h635q76 0 76 -71v-211h-463v-271h327q76 0 76 -71v-211h-403v-301h407q76 0 76 -72v-211h-723q-89 -27 -216.5 -27t-231 30t-172.5 112q-140 168 -140 594zM455 709q0 -285 41 -373q22 -49 59 -65.5t89 -16.5 t110 14v881q-87 14 -124.5 14t-74.5 -16.5t-59 -65.5q-41 -88 -41 -372z" />
<glyph unicode="&#x153;" horiz-adv-x="1591" d="M84 530q0 297 104 428q102 129 332 129q98 0 179 -33.5t126 -99.5q91 133 305 133q306 0 362 -273q17 -83 17 -141t-2 -89t-7 -62q-12 -75 -23 -100h-506q0 -104 49 -145t156 -41l239 6q74 0 74 -74v-127q-157 -68 -364.5 -68t-299.5 133q-45 -66 -126 -99.5t-179 -33.5 q-227 0 -331.5 130t-104.5 427zM420 575.5q0 -145.5 5 -205t19 -90.5q22 -53 95 -53t95 53q23 55 23 201.5t-5 205t-18 90.5t-37 42t-58 10q-35 0 -58.5 -10t-36.5 -42q-24 -56 -24 -201.5zM971 621h254q0 127 -25.5 175t-98.5 48t-100.5 -51.5t-29.5 -171.5z" />
<glyph unicode="&#x178;" horiz-adv-x="1124" d="M23 1419h319q47 0 61.5 -23.5t29.5 -95.5q54 -256 138 -483q112 313 160 602h277q69 0 69 -71q0 -16 -10 -64q-86 -327 -326 -762v-522h-282q-76 0 -76 72v452q-257 470 -360 895zM170 1671q0 80 39 117t133 37t133 -37t39 -117t-39 -115.5t-133 -35.5t-133 35.5 t-39 115.5zM613 1671q0 80 38.5 117t133.5 37q94 0 133 -37t39 -117t-39 -115.5t-133 -35.5t-133 35.5t-39 115.5z" />
<glyph unicode="&#x2c6;" horiz-adv-x="892" d="M153.5 1190.5q-6.5 21.5 16.5 75.5q32 75 143 250h232q29 0 43 -13.5t44 -63.5q59 -98 128 -270h-162q-33 0 -46 7.5t-32 42.5l-74 129l-102 -179h-151q-33 0 -39.5 21.5z" />
<glyph unicode="&#x2dc;" horiz-adv-x="892" d="M100 1235q0 248 213 248q90 0 142.5 -43t73 -56.5t49 -13.5t37 26.5t8.5 80.5h118q54 0 54 -53.5t-10.5 -98.5t-34.5 -78q-52 -69 -168 -69q-92 0 -143.5 43t-72 56t-49 13t-37 -26.5t-8.5 -79.5h-118q-33 0 -43.5 14t-10.5 37z" />
<glyph unicode="&#x2000;" horiz-adv-x="958" />
<glyph unicode="&#x2001;" horiz-adv-x="1917" />
<glyph unicode="&#x2002;" horiz-adv-x="958" />
<glyph unicode="&#x2003;" horiz-adv-x="1917" />
<glyph unicode="&#x2004;" horiz-adv-x="639" />
<glyph unicode="&#x2005;" horiz-adv-x="479" />
<glyph unicode="&#x2006;" horiz-adv-x="319" />
<glyph unicode="&#x2007;" horiz-adv-x="319" />
<glyph unicode="&#x2008;" horiz-adv-x="239" />
<glyph unicode="&#x2009;" horiz-adv-x="383" />
<glyph unicode="&#x200a;" horiz-adv-x="106" />
<glyph unicode="&#x2010;" horiz-adv-x="794" d="M78 479v234h563q76 0 76 -72v-233h-563q-76 0 -76 71z" />
<glyph unicode="&#x2011;" horiz-adv-x="794" d="M78 479v234h563q76 0 76 -72v-233h-563q-76 0 -76 71z" />
<glyph unicode="&#x2012;" horiz-adv-x="794" d="M78 479v234h563q76 0 76 -72v-233h-563q-76 0 -76 71z" />
<glyph unicode="&#x2013;" horiz-adv-x="1024" d="M0 506v276h1024v-276h-1024z" />
<glyph unicode="&#x2014;" horiz-adv-x="2048" d="M0 506v276h2048v-276h-2048z" />
<glyph unicode="&#x2018;" horiz-adv-x="499" d="M66 1004q0 80 30.5 147.5t61.5 122.5l82 147h135q49 0 49 -37q0 -20 -8 -36l-97 -193q72 -23 93.5 -59.5t21.5 -81.5q0 -92 -42 -133t-143 -41t-142 42t-41 122z" />
<glyph unicode="&#x2019;" horiz-adv-x="499" d="M66 1255q0 92 42 133.5t143 41.5t142 -42t41 -122t-30.5 -147.5t-61.5 -123.5l-82 -147h-135q-49 0 -49 37q0 20 8 37l96 192q-72 23 -93 59.5t-21 81.5z" />
<glyph unicode="&#x201a;" horiz-adv-x="499" d="M66 176q0 92 42 133.5t143 41.5t142 -42t41 -122t-30.5 -147.5t-61.5 -123.5l-82 -147h-135q-49 0 -49 37q0 20 8 37l96 192q-72 23 -93 59.5t-21 81.5z" />
<glyph unicode="&#x201c;" horiz-adv-x="962" d="M66 1004q0 80 30.5 147.5t61.5 122.5l82 147h135q49 0 49 -37q0 -20 -8 -36l-97 -193q72 -23 93.5 -59.5t21.5 -81.5q0 -92 -42 -133t-143 -41t-142 42t-41 122zM529 1004q0 80 30.5 147.5t61.5 122.5l82 147h135q49 0 49 -37q0 -20 -8 -36l-97 -193q72 -23 93.5 -59.5 t21.5 -81.5q0 -92 -42 -133t-143 -41t-142 42t-41 122z" />
<glyph unicode="&#x201d;" horiz-adv-x="962" d="M66 1255q0 92 42 133.5t143 41.5t142 -42t41 -122t-30.5 -147.5t-61.5 -123.5l-82 -147h-135q-49 0 -49 37q0 20 8 37l96 192q-72 23 -93 59.5t-21 81.5zM529 1255q0 92 42 133.5t143 41.5t142 -42t41 -122t-30.5 -147.5t-61.5 -123.5l-82 -147h-135q-49 0 -49 37 q0 20 8 37l96 192q-72 23 -93 59.5t-21 81.5z" />
<glyph unicode="&#x201e;" horiz-adv-x="962" d="M66 176q0 92 42 133.5t143 41.5t142 -42t41 -122t-30.5 -147.5t-61.5 -123.5l-82 -147h-135q-49 0 -49 37q0 20 8 37l96 192q-72 23 -93 59.5t-21 81.5zM529 176q0 92 42 133.5t143 41.5t142 -42t41 -122t-30.5 -147.5t-61.5 -123.5l-82 -147h-135q-49 0 -49 37 q0 20 8 37l96 192q-72 23 -93 59.5t-21 81.5z" />
<glyph unicode="&#x2022;" horiz-adv-x="913" d="M123 713q0 174 84 250.5t250 76.5t250 -76.5t84 -250.5t-84 -251t-250 -77t-250 77t-84 251z" />
<glyph unicode="&#x2026;" horiz-adv-x="1781" d="M100 166q0 96 45 139t152 43q106 0 151.5 -43t45.5 -139t-45.5 -139t-151.5 -43t-151.5 43t-45.5 139zM694 166q0 96 45 139t152 43q106 0 151.5 -43t45.5 -139t-45.5 -139t-151.5 -43t-151.5 43t-45.5 139zM1288 166q0 96 45 139t152 43q106 0 151.5 -43t45.5 -139 t-45.5 -139t-151.5 -43t-151.5 43t-45.5 139z" />
<glyph unicode="&#x202f;" horiz-adv-x="383" />
<glyph unicode="&#x2039;" horiz-adv-x="587" d="M68 530l192 398h201q49 0 49 -47q0 -22 -12 -52l-121 -299l151 -399h-227q-35 0 -50 18.5t-28 45.5z" />
<glyph unicode="&#x203a;" horiz-adv-x="587" d="M59 928h228q35 0 50 -18.5t28 -45.5l155 -336l-192 -397h-201q-49 0 -49 47q0 23 12 51l121 299z" />
<glyph unicode="&#x205f;" horiz-adv-x="479" />
<glyph unicode="&#x20ac;" d="M82 502v135h121v127h-53q-68 0 -68 63v136h133q35 253 157 356q117 100 353 100q151 0 244 -43q35 -18 47 -41.5t12 -64.5v-148q-162 11 -263.5 11t-154.5 -34t-71 -136h278q68 0 68 -64v-135h-359v-127h291q68 0 68 -64v-135h-344q20 -104 70.5 -139t148.5 -35l211 8 q72 0 71 -71v-166q-145 -62 -354 -62q-201 0 -310 97q-129 113 -163 368h-65q-68 0 -68 64z" />
<glyph unicode="&#x2122;" horiz-adv-x="1521" d="M41 1286v133h526q61 0 62 -53v-133h-172v-578h-170q-60 0 -60 52v526h-127q-59 0 -59 53zM676 707q0 271 37 712h207q27 0 41 -10t24 -39l80 -332l94 381h199q52 0 57 -53q35 -344 35 -711h-154q-59 0 -59 52v522l-94 -379h-117q-48 0 -59 45l-82 334v-574h-150 q-59 0 -59 52z" />
<glyph unicode="&#xe000;" horiz-adv-x="1064" d="M0 0v1065h1065v-1065h-1065z" />
</font>
</defs>
</svg>
